<?xml version="1.0" encoding="UTF-8" standalone="no"?>
<!-- Generated by Pixelmator Pro 2.4.1 -->

<svg
   width="7210.4531"
   height="1359.136"
   viewBox="0 0 7210.4531 1359.136"
   version="1.1"
   id="svg1846"
   xmlns="http://www.w3.org/2000/svg"
   xmlns:svg="http://www.w3.org/2000/svg">
  <style>
    path {
      fill: #212529;
    }
    @media (prefers-color-scheme: dark) {
      path {
        fill: #dee2e6;
      }
    }
  </style>
  <g
     aria-label="lo|university"
     id="lo-u"
     transform="translate(629.07568,-70.43204)">
    <g
       id="g2203">
      <g
         id="g13847">
        <path
           d="M -3.7231445e-6,1001.392 V 942.00003 H 138.24 v -562.176 H 6.1439963 v -59.392 H 212.992 v 621.568 h 137.216 v 59.39197 z"
           style="fill:#3e6cd7"
           id="path2163" />
        <path
           d="m 687.10204,1009.584 q -63.488,0 -112.64,-30.71997 -48.128,-31.744 -75.776,-86.016 -27.648,-55.296 -27.648,-125.952 0,-71.68 27.648,-125.952 27.648,-55.296 75.776,-86.016 49.152,-31.744 112.64,-31.744 63.488,0 111.616,31.744 49.152,30.72 76.8,86.016 27.648,54.272 27.648,125.952 0,70.656 -27.648,125.952 -27.648,54.272 -76.8,86.016 -48.128,30.71997 -111.616,30.71997 z m 0,-61.43997 q 40.96,0 71.68,-23.552 30.72,-23.552 48.128,-64.512 18.432,-40.96 18.432,-94.208 0,-53.248 -18.432,-94.208 -17.408,-40.96 -48.128,-63.488 -30.72,-23.552 -71.68,-23.552 -39.936,0 -71.68,23.552 -30.72,22.528 -49.152,63.488 -17.408,40.96 -17.408,94.208 0,53.248 17.408,94.208 18.432,40.96 49.152,64.512 31.744,23.552 71.68,23.552 z"
           style="fill:#3e6cd7"
           id="path2165" />
        <path
           d="M 1165.3081,1156.016 V 333.74403 h 68.608 V 1156.016 Z"
           id="path2167"
           style="fill:#b7b7b7" />
        <path
           d="m 1681.4021,1012.656 q -27.648,0 -52.224,-8.192 -24.576,-8.19197 -45.056,-24.57597 -19.456,-17.408 -33.792,-43.008 -14.336,-25.6 -22.528,-61.44 -7.168,-35.84 -7.168,-80.896 l 1.024,-261.12 h 71.68 v 261.12 q 0,44.032 8.192,74.752 8.192,30.72 22.528,49.152 15.36,18.432 34.816,26.624 19.456,8.192 40.96,8.192 24.576,0 47.104,-9.216 22.528,-10.24 39.936,-29.696 18.432,-19.456 28.672,-50.176 10.24,-30.72 10.24,-72.704 v -258.048 h 71.68 v 395.264 q 0,18.432 1.024,36.864 2.048,17.408 9.216,35.83997 h -70.656 q -5.12,-12.28797 -7.168,-23.55197 -2.048,-12.288 -3.072,-24.576 0,-12.288 0,-23.552 -11.264,19.456 -26.624,34.816 -15.36,15.36 -34.816,26.624 -18.432,10.23997 -39.936,15.35997 -20.48,6.144 -44.032,6.144 z"
           id="path2169" />
        <path
           d="M 2040.8242,1001.392 V 533.42403 h 71.68 v 82.944 q 18.432,-28.672 43.008,-49.152 24.576,-21.504 54.272,-32.768 29.696,-12.288 61.44,-12.288 38.912,0 69.632,19.456 30.72,19.456 49.152,62.464 18.432,43.008 18.432,113.664 V 1001.392 h -71.68 V 719.79203 q 0,-49.152 -11.264,-77.824 -11.264,-29.696 -30.72,-41.984 -19.456,-13.312 -44.032,-13.312 -23.552,0 -48.128,10.24 -23.552,10.24 -44.032,29.696 -20.48,18.432 -33.792,45.056 -12.288,26.624 -12.288,60.416 V 1001.392 Z"
           id="path2171" />
        <path
           d="m 2537.4942,1001.392 v -59.39197 h 119.808 v -349.184 h -113.664 v -59.392 h 187.392 v 408.576 h 109.568 v 59.39197 z m 152.576,-566.27197 q -21.504,0 -36.864,-15.36 -15.36,-15.36 -15.36,-36.864 0,-22.528 14.336,-37.888 15.36,-15.36 37.888,-15.36 21.504,0 36.864,16.384 16.384,15.36 16.384,36.864 0,21.504 -16.384,36.864 -15.36,15.36 -36.864,15.36 z"
           id="path2173" />
        <path
           d="m 3063.3963,1001.392 -185.344,-467.96797 h 73.728 l 151.552,384 h -14.336 l 82.944,-190.464 q 24.576,-56.32 38.912,-104.448 15.36,-48.128 22.528,-89.088 h 69.632 q -8.192,43.008 -25.6,94.208 -17.408,51.2 -43.008,110.592 l -113.664,263.16797 z"
           id="path2175" />
        <path
           d="m 3593.6183,1011.632 q -51.2,0 -93.184,-15.35997 -41.984,-16.384 -72.704,-47.104 -29.696,-30.72 -46.08,-75.776 -16.384,-46.08 -16.384,-104.448 0,-59.392 16.384,-105.472 17.408,-46.08 46.08,-76.8 29.696,-31.744 68.608,-48.128 39.936,-16.384 83.968,-16.384 39.936,0 74.752,13.312 34.816,13.312 60.416,40.96 25.6,26.624 39.936,68.608 15.36,41.984 15.36,99.328 0,8.192 -1.024,17.408 0,8.192 -1.024,16.384 h -332.8 q 2.048,45.056 15.36,78.848 13.312,32.768 34.816,54.272 21.504,20.48 49.152,30.72 28.672,10.24 60.416,10.24 24.576,0 46.08,-5.12 21.504,-6.144 39.936,-17.408 19.456,-12.288 34.816,-29.696 l 40.96,39.936 q -19.456,23.552 -45.056,39.936 -24.576,16.384 -54.272,23.55197 -29.696,8.192 -64.512,8.192 z m -154.624,-290.81597 h 257.024 q 0,-32.768 -9.216,-58.368 -8.192,-26.624 -24.576,-45.056 -15.36,-19.456 -37.888,-28.672 -21.504,-10.24 -49.152,-10.24 -24.576,0 -47.104,8.192 -21.504,8.192 -39.936,26.624 -18.432,17.408 -31.744,44.032 -12.288,26.624 -17.408,63.488 z"
           id="path2177" />
        <path
           d="m 3900.9444,533.42403 h 76.8 l -3.072,136.192 -9.216,-15.36 q 6.144,-31.744 21.504,-56.32 15.36,-24.576 36.864,-40.96 21.504,-17.408 47.104,-25.6 25.6,-9.216 53.248,-9.216 36.864,0 67.584,13.312 31.744,12.288 56.32,37.888 l -32.768,57.344 -4.096,9.216 -7.168,-4.096 q -2.048,-8.192 -6.144,-15.36 -4.096,-7.168 -17.408,-17.408 -16.384,-10.24 -30.72,-13.312 -13.312,-4.096 -30.72,-4.096 -25.6,0 -51.2,10.24 -25.6,9.216 -47.104,29.696 -20.48,20.48 -32.768,52.224 -12.288,31.744 -12.288,75.776 V 1002.416 h -74.752 z"
           id="path2179" />
        <path
           d="m 4476.1104,1011.632 q -38.912,0 -74.752,-8.192 -34.816,-8.19197 -66.56,-24.57597 -30.72,-16.384 -57.344,-40.96 l 40.96,-69.632 6.144,-9.216 6.144,4.096 q 2.048,8.192 4.096,17.408 3.072,8.192 14.336,20.48 21.504,21.504 51.2,35.84 30.72,13.312 77.824,13.312 37.888,0 63.488,-9.216 26.624,-9.216 40.96,-25.6 14.336,-17.408 14.336,-39.936 0,-15.36 -6.144,-26.624 -6.144,-12.288 -20.48,-22.528 -13.312,-10.24 -35.84,-20.48 -22.528,-10.24 -55.296,-20.48 -53.248,-15.36 -93.184,-35.84 -39.936,-20.48 -61.44,-47.104 -21.504,-27.648 -21.504,-62.464 0,-35.84 19.456,-61.44 19.456,-26.624 57.344,-40.96 38.912,-15.36 95.232,-15.36 32.768,0 59.392,5.12 26.624,4.096 49.152,13.312 22.528,9.216 40.96,23.552 19.456,13.312 36.864,31.744 l -41.984,51.2 -7.168,8.192 -5.12,-5.12 q -1.024,-8.192 -5.12,-15.36 -3.072,-8.192 -14.336,-19.456 -23.552,-18.432 -53.248,-27.648 -29.696,-10.24 -57.344,-10.24 -40.96,0 -70.656,14.336 -29.696,14.336 -29.696,44.032 0,15.36 10.24,30.72 11.264,14.336 39.936,29.696 28.672,14.336 81.92,29.696 58.368,18.432 93.184,37.888 35.84,18.432 51.2,43.008 16.384,24.576 16.384,58.368 0,38.912 -21.504,72.704 -20.48,33.792 -63.488,54.272 -43.008,19.45597 -108.544,19.45597 z"
           id="path2181" />
        <path
           d="m 4777.4845,1001.392 v -59.39197 h 119.808 v -349.184 h -113.664 v -59.392 h 187.392 v 408.576 h 109.568 v 59.39197 z m 152.576,-566.27197 q -21.504,0 -36.864,-15.36 -15.36,-15.36 -15.36,-36.864 0,-22.528 14.336,-37.888 15.36,-15.36 37.888,-15.36 21.504,0 36.864,16.384 16.384,15.36 16.384,36.864 0,21.504 -16.384,36.864 -15.36,15.36 -36.864,15.36 z"
           id="path2183" />
        <path
           d="m 5369.2585,1008.56 q -45.056,0 -73.728,-15.35997 -28.672,-15.36 -44.032,-47.104 -15.36,-32.768 -20.48,-81.92 -4.096,-49.152 -2.048,-116.736 l 12.288,-333.824 76.8,-9.216 10.24,-1.024 1.024,7.168 q -5.12,7.168 -9.216,14.336 -3.072,7.168 -5.12,24.576 l -9.216,115.712 3.072,18.432 -7.168,168.96 q -3.072,77.824 4.096,120.832 7.168,41.984 25.6,58.368 18.432,15.36 49.152,15.36 33.792,0 59.392,-13.312 26.624,-13.312 55.296,-33.792 l 22.528,58.368 q -34.816,25.6 -71.68,37.888 -36.864,12.28797 -76.8,12.28797 z m -234.496,-475.13597 h 336.896 v 60.416 h -336.896 z"
           id="path2185" />
        <path
           d="m 5663.1286,1179.568 q -32.768,0 -60.416,-10.24 -26.624,-10.24 -47.104,-29.696 l 31.744,-50.176 6.144,-9.216 6.144,4.096 q 2.048,8.192 7.168,13.312 5.12,6.144 19.456,15.36 9.216,3.072 19.456,4.096 10.24,2.048 21.504,2.048 27.648,0 46.08,-13.312 19.456,-13.312 33.792,-40.96 14.336,-27.648 27.648,-69.63197 l 89.088,-275.456 q 15.36,-47.104 29.696,-93.184 14.336,-46.08 19.456,-93.184 h 73.728 q -7.168,47.104 -22.528,95.232 -15.36,48.128 -32.768,96.256 L 5814.6806,1054.64 q -24.576,68.608 -63.488,96.256 -37.888,28.672 -88.064,28.672 z m -82.944,-646.14397 h 76.8 l 151.552,390.144 -32.768,91.13597 z"
           id="path2187" />
        <g
           id="text12368">
          <path
             d="m -232.47412,961.92761 -55.35156,55.85939 -341.25,-284.88283 341.25,-284.88281 55.35156,56.36719 -276.75781,227.5 z"
             id="path12370"
             style="fill:#b7b7b7" />
          <path
             d="m 6185.2837,504.38855 54.8437,-56.36719 341.25,284.88281 -341.25,284.88283 -54.8437,-55.85939 276.7578,-228.00781 z"
             id="path12372"
             style="fill:#b7b7b7" />
        </g>
      </g>
    </g>
  </g>
</svg>
