<?xml version="1.0" encoding="UTF-8" standalone="no"?>
<!-- Generator: Adobe Illustrator 18.0.0, SVG Export Plug-In . SVG Version: 6.00 Build 0)  -->

<svg
   xmlns:dc="http://purl.org/dc/elements/1.1/"
   xmlns:cc="http://creativecommons.org/ns#"
   xmlns:rdf="http://www.w3.org/1999/02/22-rdf-syntax-ns#"
   xmlns:svg="http://www.w3.org/2000/svg"
   xmlns="http://www.w3.org/2000/svg"
   xmlns:sodipodi="http://sodipodi.sourceforge.net/DTD/sodipodi-0.dtd"
   xmlns:inkscape="http://www.inkscape.org/namespaces/inkscape"
   version="1.1"
   id="Home"
   x="0px"
   y="0px"
   viewBox="0 0 342.4 199"
   enable-background="new 0 0 461.4 199"
   xml:space="preserve"
   inkscape:version="0.48.5 r10040"
   width="100px"
   height="100px"
   sodipodi:docname="DE-Logo2.svg"><metadata
     id="metadata59"><rdf:RDF><cc:Work
         rdf:about=""><dc:format>image/svg+xml</dc:format><dc:type
           rdf:resource="http://purl.org/dc/dcmitype/StillImage" /><dc:title></dc:title></cc:Work></rdf:RDF></metadata><defs
     id="defs57" /><sodipodi:namedview
     pagecolor="#ffffff"
     bordercolor="#666666"
     borderopacity="1"
     objecttolerance="10"
     gridtolerance="10"
     guidetolerance="10"
     inkscape:pageopacity="0"
     inkscape:pageshadow="2"
     inkscape:window-width="1390"
     inkscape:window-height="676"
     id="namedview55"
     showgrid="false"
     inkscape:zoom="1.4217599"
     inkscape:cx="186.43619"
     inkscape:cy="152.35505"
     inkscape:window-x="384"
     inkscape:window-y="164"
     inkscape:window-maximized="0"
     inkscape:current-layer="g3" /><g
     id="g3"><rect
       x="42.599998"
       y="42.400002"
       width="9.1000004"
       height="7.1999998"
       id="rect17"
       style="fill:#ffffff" /><g
       id="g19"><path
         d="m 24.6,70 c 0,5.3 -3.5,8.8 -7.7,8.8 -4.2,0 -7.8,-3.5 -7.8,-8.8 v -0.1 c 0,-5.4 3.6,-8.8 7.8,-8.8 4.2,0 7.7,3.5 7.7,8.8 V 70 z m 8.9,15.9 V 42.4 H 24.4 V 58.1 C 22.3,55.5 19.3,53.3 14.5,53.3 7,53.3 0,59.2 0,69.8 V 70 c 0,10.7 7.1,16.5 14.5,16.5 4.7,0 7.7,-2.2 9.9,-5.2 v 4.6 h 9.1 z"
         id="path21"
         inkscape:connector-curvature="0"
         style="fill:#ffffff" /></g><rect
       x="42.599998"
       y="53.900002"
       width="9.1000004"
       height="31.9"
       id="rect23"
       style="fill:#ffffff" /><path
       d="m 75.5,49.6 c -2.1,0 -3.3,1.1 -3.3,3.5 v 1.2 h 7.3 v 7.4 H 72.3 V 85.9 H 63.2 V 61.7 h -3.8 v -7.4 h 3.8 v -2 c 0,-7 3.5,-10.2 9.9,-10.2 2.9,0 4.8,0.4 6.4,0.9 v 7.5 c -1.2,-0.6 -2.5,-0.9 -4,-0.9"
       id="path25"
       inkscape:connector-curvature="0"
       style="fill:#ffffff" /><path
       d="m 103,49.6 c -2.1,0 -3.3,1.1 -3.3,3.5 v 1.2 h 7.3 v 7.4 H 99.8 V 85.9 H 90.7 V 61.7 H 87 v -7.4 h 3.8 v -2 c 0,-7 3.5,-10.2 9.9,-10.2 2.9,0 4.8,0.4 6.4,0.9 v 7.5 c -1.3,-0.6 -2.6,-0.9 -4.1,-0.9"
       id="path27"
       inkscape:connector-curvature="0"
       style="fill:#ffffff" /><path
       d="m 126.8,53.3 c -9.3,0 -15.8,7.5 -15.8,16.6 V 70 c 0,9.8 7.1,16.5 16.7,16.5 5.8,0 10.1,-2.3 13.1,-6 l -5.2,-4.6 c -2.5,2.3 -4.7,3.3 -7.7,3.3 -4,0 -6.9,-2.1 -7.8,-6.3 h 22.2 c 0.1,-0.8 0.1,-1.4 0.1,-2.3 v -0.1 c 0,-8.9 -4.9,-17.2 -15.6,-17.2 z m -6.9,14.1 c 0.7,-4.1 3.2,-6.8 6.9,-6.8 3.8,0 6.2,2.7 6.7,6.8 h -13.6 z"
       id="path29"
       inkscape:connector-curvature="0"
       style="fill:#ffffff" /><path
       d="m 168.6,62.8 c -6,0 -9.7,3.6 -9.7,11.3 v 11.8 h -9.1 v -32 h 9.1 v 6.4 c 1.8,-4.4 4.8,-7.3 10.2,-7 v 9.5 h -0.5 z"
       id="path31"
       inkscape:connector-curvature="0"
       style="fill:#ffffff" /><path
       d="m 190,53.3 c -9.3,0 -15.8,7.5 -15.8,16.6 V 70 c 0,9.8 7.1,16.5 16.7,16.5 5.8,0 10.1,-2.3 13,-6 l -5.2,-4.6 c -2.5,2.3 -4.7,3.3 -7.7,3.3 -4.1,0 -6.9,-2.1 -7.8,-6.3 h 22.2 c 0.1,-0.8 0.1,-1.4 0.1,-2.3 V 70.5 C 205.6,61.6 200.7,53.3 190,53.3 z m -6.9,14.1 c 0.7,-4.1 3.2,-6.8 6.9,-6.8 3.8,0 6.2,2.7 6.7,6.8 h -13.6 z"
       id="path33"
       inkscape:connector-curvature="0"
       style="fill:#ffffff" /><path
       d="M 232.9,85.9 V 68.1 c 0,-4.3 -2,-6.5 -5.5,-6.5 -3.5,0 -5.7,2.2 -5.7,6.5 v 17.8 h -9.1 v -32 h 9.1 v 4.5 c 2.1,-2.7 4.8,-5.1 9.4,-5.1 6.8,0 10.8,4.5 10.8,11.9 v 20.7 h -9 z"
       id="path35"
       inkscape:connector-curvature="0"
       style="fill:#ffffff" /><path
       d="m 265.1,86.6 c -9.6,0 -16.6,-7.4 -16.6,-16.5 V 70 c 0,-9.1 7,-16.6 16.7,-16.6 6,0 9.8,2 12.8,5.4 l -5.5,6 c -2,-2.2 -4,-3.5 -7.3,-3.5 -4.5,0 -7.8,4 -7.8,8.7 v 0 c 0,4.9 3.2,8.8 8.1,8.8 3,0 5.1,-1.3 7.3,-3.4 l 5.3,5.4 c -3,3.3 -6.6,5.8 -13,5.8"
       id="path37"
       inkscape:connector-curvature="0"
       style="fill:#ffffff" /><path
       d="m 298.9,53.3 c -9.3,0 -15.8,7.5 -15.8,16.6 V 70 c 0,9.8 7.1,16.5 16.7,16.5 5.8,0 10.1,-2.3 13.1,-6 l -5.2,-4.6 c -2.5,2.3 -4.7,3.3 -7.8,3.3 -4,0 -6.9,-2.1 -7.8,-6.3 h 22.2 c 0.1,-0.8 0.1,-1.4 0.1,-2.3 v -0.1 c 0,-8.9 -4.8,-17.2 -15.5,-17.2 z M 292,67.4 c 0.7,-4.1 3.2,-6.8 6.9,-6.8 3.8,0 6.2,2.7 6.7,6.8 H 292 z"
       id="path39"
       inkscape:connector-curvature="0"
       style="fill:#ffffff" /><path
       d="m 170,146.7 v -17.8 c 0,-4.3 -2,-6.5 -5.5,-6.5 -3.5,0 -5.7,2.2 -5.7,6.5 v 17.8 h -9.1 v -31.9 h 9.1 v 4.5 c 2.1,-2.7 4.8,-5.1 9.4,-5.1 6.8,0 10.8,4.5 10.8,11.9 v 20.7 h -9 z"
       id="path41"
       inkscape:connector-curvature="0"
       style="fill:#ffc10e" /><path
       d="m 211.2,114.8 v 4.2 c -2.4,-2.7 -5.4,-4.8 -10.3,-4.8 -7.3,0 -14.2,5.4 -14.2,14.9 v 0.1 c 0,9.5 6.7,14.9 14.2,14.9 4.8,0 7.7,-2 10.4,-5.2 v 1.6 c 0,5.7 -2.9,8.7 -9.1,8.7 -4.2,0 -7.5,-1.1 -10.8,-2.9 l -3.1,6.8 c 4.1,2.1 8.9,3.3 14.1,3.3 11.9,0 17.8,-4.8 17.8,-16.9 v -24.7 h -9 z m 0.1,14.4 c 0,4.3 -3.4,7.4 -7.8,7.4 -4.4,0 -7.7,-3 -7.7,-7.4 v -0.1 c 0,-4.4 3.3,-7.4 7.7,-7.4 4.4,0 7.8,3 7.8,7.4 v 0.1 z"
       id="path43"
       inkscape:connector-curvature="0"
       style="fill:#ffc10e" /><rect
       x="229.10001"
       y="103.2"
       width="9.1000004"
       height="7.1999998"
       id="rect45"
       style="fill:#ffc10e" /><rect
       x="229.10001"
       y="114.8"
       width="9.1000004"
       height="31.9"
       id="rect47"
       style="fill:#ffc10e" /><path
       d="m 267.1,146.7 v -17.8 c 0,-4.3 -2,-6.5 -5.5,-6.5 -3.5,0 -5.7,2.2 -5.7,6.5 v 17.8 h -9.1 v -31.9 h 9.1 v 4.5 c 2.1,-2.7 4.8,-5.1 9.4,-5.1 6.8,0 10.8,4.5 10.8,11.9 v 20.7 h -9 z"
       id="path49"
       inkscape:connector-curvature="0"
       style="fill:#ffc10e" /><path
       d="m 298.9,114.2 c -9.3,0 -15.8,7.5 -15.8,16.6 v 0.1 c 0,9.8 7.1,16.5 16.7,16.5 5.8,0 10.1,-2.3 13.1,-6 l -5.2,-4.6 c -2.5,2.3 -4.7,3.3 -7.8,3.3 -4,0 -6.9,-2.1 -7.8,-6.3 h 22.2 c 0.1,-0.8 0.1,-1.4 0.1,-2.3 v -0.1 c 0,-8.9 -4.8,-17.2 -15.5,-17.2 z m -6.9,14.1 c 0.7,-4.1 3.2,-6.8 6.9,-6.8 3.8,0 6.2,2.7 6.7,6.8 H 292 z"
       id="path51"
       inkscape:connector-curvature="0"
       style="fill:#ffc10e" /><path
       d="m 126.8,114.2 c -9.3,0 -15.8,7.5 -15.8,16.6 v 0.1 c 0,9.8 7.1,16.5 16.7,16.5 5.8,0 10.1,-2.3 13.1,-6 l -5.2,-4.6 c -2.5,2.3 -4.7,3.3 -7.8,3.3 -4,0 -6.9,-2.1 -7.8,-6.3 h 22.2 c 0.1,-0.8 0.1,-1.4 0.1,-2.3 v -0.1 c 0.1,-8.9 -4.8,-17.2 -15.5,-17.2 z m -6.9,14.1 c 0.7,-4.1 3.2,-6.8 6.9,-6.8 3.8,0 6.2,2.7 6.7,6.8 h -13.6 z"
       id="path53"
       inkscape:connector-curvature="0"
       style="fill:#ffc10e" /></g></svg>
