<?xml version="1.0" encoding="UTF-8" standalone="no"?>
<!-- Created with Inkscape (http://www.inkscape.org/) -->

<svg
   xmlns:dc="http://purl.org/dc/elements/1.1/"
   xmlns:cc="http://creativecommons.org/ns#"
   xmlns:rdf="http://www.w3.org/1999/02/22-rdf-syntax-ns#"
   xmlns:svg="http://www.w3.org/2000/svg"
   xmlns="http://www.w3.org/2000/svg"
   xmlns:sodipodi="http://sodipodi.sourceforge.net/DTD/sodipodi-0.dtd"
   xmlns:inkscape="http://www.inkscape.org/namespaces/inkscape"
   id="svg4136"
   version="1.1"
   inkscape:version="0.91 r13725"
   xml:space="preserve"
   width="185.40125"
   height="77.361252"
   viewBox="0 0 185.40125 77.361252"
   sodipodi:docname="Learning_Objects_II.svg"><metadata
     id="metadata4142"><rdf:RDF><cc:Work
         rdf:about=""><dc:format>image/svg+xml</dc:format><dc:type
           rdf:resource="http://purl.org/dc/dcmitype/StillImage" /><dc:title></dc:title></cc:Work></rdf:RDF></metadata><defs
     id="defs4140"><clipPath
       clipPathUnits="userSpaceOnUse"
       id="clipPath4150"><path
         d="m 0.06,50.436 338.835,0 0,-50.436 -338.835,0 0,50.436 z"
         id="path4152"
         inkscape:connector-curvature="0" /></clipPath></defs><sodipodi:namedview
     pagecolor="#000000"
     bordercolor="#666666"
     borderopacity="1"
     objecttolerance="10"
     gridtolerance="10"
     guidetolerance="10"
     inkscape:pageopacity="1"
     inkscape:pageshadow="2"
     inkscape:window-width="1603"
     inkscape:window-height="863"
     id="namedview4138"
     showgrid="false"
     fit-margin-top="0"
     fit-margin-left="0"
     fit-margin-right="0"
     fit-margin-bottom="0"
     inkscape:zoom="3.4383481"
     inkscape:cx="100.67334"
     inkscape:cy="77.253522"
     inkscape:window-x="422"
     inkscape:window-y="38"
     inkscape:window-maximized="0"
     inkscape:current-layer="g4144" /><g
     id="g4144"
     inkscape:groupmode="layer"
     inkscape:label="Learning_Objects_Logo_Color.eps"
     transform="matrix(1.25,0,0,-1.25,-72.2175,56.965)"><path
       d="m 57.774,45.361 3.137,0 0,-20.655 8.495,0 0,-2.573 -11.632,0 0,23.228"
       style="fill:#5db32b;fill-opacity:1;fill-rule:nonzero;stroke:none"
       id="path4166"
       inkscape:connector-curvature="0" /><path
       d="m 72.716,45.361 11.738,0 -0.916,-2.573 -7.685,0 0,-7.473 7.578,0 0,-2.608 -7.578,0 0,-8.001 8.741,0 0,-2.573 -11.878,0 0,23.228"
       style="fill:#5db32b;fill-opacity:1;fill-rule:nonzero;stroke:none"
       id="path4168"
       inkscape:connector-curvature="0" /><path
       d="m 100.241,30.803 -2.186,6.063 c -0.669,1.974 -1.021,3.031 -1.304,3.877 l -0.07,0 c -0.247,-0.846 -0.635,-1.938 -1.34,-3.912 l -2.185,-6.028 7.085,0 z m -4.653,14.628 2.221,0 9.024,-23.298 -3.349,0 -2.291,6.097 -8.988,0 -2.221,-6.097 -3.278,0 8.882,23.298"
       style="fill:#5db32b;fill-opacity:1;fill-rule:nonzero;stroke:none"
       id="path4170"
       inkscape:connector-curvature="0" /><path
       d="m 115.078,34.328 c 1.233,0 2.149,0.247 2.996,0.74 1.163,0.635 1.903,1.869 1.903,3.56 0,1.34 -0.494,2.468 -1.48,3.208 -0.706,0.529 -1.728,0.952 -3.384,0.952 l -2.115,0 0,-8.46 2.08,0 z m -5.217,11.033 5.252,0 c 2.361,0 3.947,-0.424 5.146,-1.128 2.079,-1.164 2.96,-3.172 2.96,-5.288 0,-3.207 -1.761,-5.216 -4.652,-6.097 l 0,-0.071 c 0.705,-0.387 1.586,-1.656 2.82,-3.736 l 4.123,-6.908 -3.665,0 -3.806,6.45 c -1.093,1.938 -1.975,2.996 -2.644,3.172 l -2.397,0 0,-9.622 -3.137,0 0,23.228"
       style="fill:#5db32b;fill-opacity:1;fill-rule:nonzero;stroke:none"
       id="path4172"
       inkscape:connector-curvature="0" /><path
       d="m 129.032,45.361 3.031,0 10.504,-13.676 c 1.375,-1.763 2.361,-3.173 3.137,-4.336 l 0.07,0 c -0.07,1.269 -0.07,2.397 -0.07,4.053 l 0,13.959 3.137,0 0,-23.228 -2.75,0 -10.891,14.204 c -1.304,1.692 -2.256,3.032 -3.067,4.195 l -0.07,0 c 0.07,-1.093 0.105,-2.221 0.105,-3.878 l 0,-14.521 -3.136,0 0,23.228"
       style="fill:#5db32b;fill-opacity:1;fill-rule:nonzero;stroke:none"
       id="path4174"
       inkscape:connector-curvature="0" /><path
       d="m 153.666,45.361 3.136,0 0,-23.228 -3.136,0 0,23.228 z"
       style="fill:#5db32b;fill-opacity:1;fill-rule:nonzero;stroke:none"
       id="path4176"
       inkscape:connector-curvature="0" /><path
       d="m 162.194,45.361 3.031,0 10.504,-13.676 c 1.375,-1.763 2.361,-3.173 3.137,-4.336 l 0.07,0 c -0.07,1.269 -0.07,2.397 -0.07,4.053 l 0,13.959 3.137,0 0,-23.228 -2.75,0 -10.891,14.204 c -1.304,1.692 -2.256,3.032 -3.067,4.195 l -0.07,0 c 0.07,-1.093 0.106,-2.221 0.106,-3.878 l 0,-14.521 -3.137,0 0,23.228"
       style="fill:#5db32b;fill-opacity:1;fill-rule:nonzero;stroke:none"
       id="path4178"
       inkscape:connector-curvature="0" /><path
       d="m 197.189,31.579 -0.917,2.573 9.659,0 0,-10.574 c -1.728,-0.882 -4.653,-1.798 -7.861,-1.798 -7.155,0 -11.702,4.829 -11.702,11.597 0,7.12 4.9,12.195 12.267,12.195 2.678,0 4.969,-0.635 6.45,-1.234 l 0,-2.925 c -1.692,0.846 -3.772,1.48 -6.274,1.48 -5.852,0 -9.129,-3.807 -9.129,-9.235 0,-5.64 3.348,-9.199 8.706,-9.199 1.798,0 3.419,0.352 4.441,0.846 l 0,6.274 -5.64,0"
       style="fill:#5db32b;fill-opacity:1;fill-rule:nonzero;stroke:none"
       id="path4180"
       inkscape:connector-curvature="0" /><g
       id="g4226"
       style="fill:#ffffff"
       transform="translate(-132.8,-32)"><path
         inkscape:connector-curvature="0"
         id="path4182"
         style="fill:#ffffff;fill-opacity:1;fill-rule:nonzero;stroke:none"
         d="m 236.062,33.658 c 0,5.323 -2.961,9.235 -8.108,9.235 -4.899,0 -8.142,-3.665 -8.142,-9.235 0,-5.604 3.243,-9.199 8.142,-9.199 4.9,0 8.108,3.595 8.108,9.199 z m -19.563,0 c 0,7.05 4.829,11.914 11.455,11.914 6.697,0 11.421,-4.97 11.421,-11.914 0,-7.225 -4.935,-11.878 -11.421,-11.878 -6.591,0 -11.455,4.688 -11.455,11.878" /><path
         inkscape:connector-curvature="0"
         id="path4184"
         style="fill:#ffffff;fill-opacity:1;fill-rule:nonzero;stroke:none"
         d="m 249.522,24.741 c 3.032,0 4.935,1.163 4.935,4.018 0,2.397 -1.798,3.912 -4.582,3.912 l -3.561,0 0,-7.93 3.208,0 z m -0.846,10.539 c 2.855,0 4.371,1.445 4.371,3.771 0,2.15 -1.269,3.701 -4.3,3.701 l -2.433,0 0,-7.472 2.362,0 z m -5.498,10.081 5.85,0 c 4.936,0 7.156,-2.75 7.156,-5.887 0,-2.256 -1.128,-4.124 -2.997,-4.97 l 0,-0.07 c 2.645,-0.599 4.477,-2.785 4.477,-5.64 0,-3.807 -2.749,-6.661 -7.966,-6.661 l -6.52,0 0,23.228" /><path
         inkscape:connector-curvature="0"
         id="path4186"
         style="fill:#ffffff;fill-opacity:1;fill-rule:nonzero;stroke:none"
         d="m 258.612,18.679 c 0.6,-0.247 1.304,-0.318 1.868,-0.318 2.539,0 3.032,1.551 3.032,3.737 l 0,23.263 3.136,0 0,-23.828 c 0,-3.454 -1.726,-5.85 -5.992,-5.85 -1.056,0 -1.903,0.175 -2.643,0.387 l 0.599,2.609" /><path
         inkscape:connector-curvature="0"
         id="path4188"
         style="fill:#ffffff;fill-opacity:1;fill-rule:nonzero;stroke:none"
         d="m 271.159,45.361 11.737,0 -0.916,-2.573 -7.684,0 0,-7.473 7.578,0 0,-2.608 -7.578,0 0,-8.001 8.741,0 0,-2.573 -11.878,0 0,23.228" /><path
         inkscape:connector-curvature="0"
         id="path4190"
         style="fill:#ffffff;fill-opacity:1;fill-rule:nonzero;stroke:none"
         d="m 304.605,23.472 c -2.326,-1.234 -4.617,-1.692 -6.767,-1.692 -7.155,0 -11.315,4.899 -11.315,11.702 0,6.732 4.724,12.09 11.773,12.09 2.503,0 4.618,-0.564 5.851,-1.234 l 0,-2.925 c -1.657,0.881 -3.454,1.48 -5.781,1.48 -5.357,0 -8.529,-4.088 -8.529,-9.27 0,-5.393 3.207,-9.164 8.318,-9.164 2.186,0 3.948,0.634 5.57,1.515 l 0.88,-2.502" /><path
         inkscape:connector-curvature="0"
         id="path4192"
         style="fill:#ffffff;fill-opacity:1;fill-rule:nonzero;stroke:none"
         d="m 312.779,42.788 -6.696,0 0,2.573 17.165,0 -0.881,-2.573 -6.45,0 0,-20.655 -3.138,0 0,20.655" /><path
         inkscape:connector-curvature="0"
         id="path4194"
         style="fill:#ffffff;fill-opacity:1;fill-rule:nonzero;stroke:none"
         d="m 326.064,26.045 c 1.199,-0.811 2.961,-1.586 5.112,-1.586 2.291,0 4.406,0.916 4.406,3.419 0,5.251 -10.151,4.617 -10.151,11.596 0,3.349 2.572,6.098 7.048,6.098 2.186,0 4.125,-0.564 5.252,-1.128 l 0,-2.855 c -1.585,0.846 -3.348,1.304 -5.145,1.304 -1.94,0 -3.878,-0.81 -3.878,-3.101 0,-4.935 10.187,-4.407 10.187,-11.667 0,-3.948 -3.172,-6.345 -7.719,-6.345 -2.679,0 -4.9,0.811 -6.415,1.833 l 1.303,2.432" /></g></g></svg>