<?xml version="1.0" encoding="UTF-8" standalone="no"?>
<!-- Created with Inkscape (http://www.inkscape.org/) -->

<svg
   id="svg4136"
   version="1.1"
   xml:space="preserve"
   width="185.40125"
   height="77.361252"
   viewBox="0 0 185.40125 77.361252"
   xmlns="http://www.w3.org/2000/svg"
   xmlns:svg="http://www.w3.org/2000/svg"
   xmlns:rdf="http://www.w3.org/1999/02/22-rdf-syntax-ns#"
   xmlns:cc="http://creativecommons.org/ns#"
   xmlns:dc="http://purl.org/dc/elements/1.1/"><metadata
     id="metadata4142"><rdf:RDF><cc:Work
         rdf:about=""><dc:format>image/svg+xml</dc:format><dc:type
           rdf:resource="http://purl.org/dc/dcmitype/StillImage" /></cc:Work></rdf:RDF></metadata><defs
     id="defs4140"><clipPath
       clipPathUnits="userSpaceOnUse"
       id="clipPath4150"><path
         d="m 0.06,50.436 338.835,0 0,-50.436 -338.835,0 0,50.436 z"
         id="path4152" /></clipPath></defs><g
     id="g4144"
     transform="matrix(1.25,0,0,-1.25,-72.2175,56.965)"><path
       style="font-size:11.2889px;line-height:1.25;font-family:Consolas;-inkscape-font-specification:Consolas;text-align:center;text-anchor:middle;fill:#ffffff;stroke-width:0.799999"
       d="m 74.428316,-0.81698796 q 0,-2.23333504 -0.63336,-3.90000404 -0.61667,-1.666669 -1.71666,-2.766672 -1.1,-1.099999 -2.59999,-1.649999 -1.50001,-0.5500035 -3.25003,-0.5500035 -0.79999,0 -1.59998,0.08333 -0.78333,0.08333 -1.60001,0.2833445 v -7.000009 h -2.90001 V 7.249684 h 2.58335 l 0.18323,-2.800001 q 1.25,1.716667 2.66669,2.400003 1.41665,0.699999 3.06667,0.699999 1.43332,0 2.51665,-0.599999 1.08334,-0.600001 1.81669,-1.700004 0.73332,-1.083334 1.09999,-2.633336 0.36668,-1.533333 0.36668,-3.43333496 z m -2.96669,-0.133342 q 0,1.31667 -0.19986,2.41666896 -0.18323,1.100003 -0.60001,1.883336 -0.41668,0.783336 -1.06667,1.216669 -0.64999,0.45 -1.55,0.45 -0.55,0 -1.11666,-0.183322 -0.56668,-0.166662 -1.18335,-0.583333 -0.60001,-0.400001 -1.28332,-1.083333 -0.66668,-0.666669 -1.43335,-1.666669 v -8.116675 q 0.79999,-0.333336 1.68335,-0.533333 0.88332,-0.183323 1.73332,-0.183323 2.35002,0 3.68334,1.583335 1.33333,1.600001 1.33333,4.80000304 z M 84.594966,11.68302 h -4.95 v 2.383334 h 7.88334 V -7.067002 h 4.98335 v -2.4166695 h -13.41668 v 2.4166695 h 5.49999 z m 23.816714,-21.1666915 -0.0668,2.2500045 q -1.36668,-1.350002 -2.78333,-1.950004 -1.4,-0.5999975 -2.95,-0.5999975 -1.43335,0 -2.45001,0.366665 -1.016664,0.3666685 -1.683344,1.0000025 -0.64999,0.65 -0.96666,1.516667 -0.29994,0.866667 -0.29994,1.883335 0,2.51667 1.86666,3.933337 1.883334,1.43333504 5.550014,1.43333504 h 3.46668 V 1.816342 q 0,1.483334 -0.95002,2.366668 -0.95,0.900002 -2.89999,0.900002 -1.41666,0 -2.8,-0.316667 -1.36667,-0.316667 -2.833344,-0.900002 v 2.616669 q 0.55,0.200013 1.21667,0.383335 0.683344,0.200013 1.433324,0.35 0.75001,0.150001 1.56669,0.233332 0.81665,0.09999 1.64999,0.09999 1.51668,0 2.73333,-0.333334 1.21667,-0.333333 2.05001,-1.016668 0.85,-0.683333 1.30001,-1.716668 0.44997,-1.033335 0.44997,-2.433335 V -9.4836825 Z m -0.31666,7.6166765 h -3.68335 q -1.08333,0 -1.86666,-0.216673 -0.78333,-0.216673 -1.28335,-0.616668 -0.49998,-0.400001 -0.74998,-0.966667 -0.23342,-0.550003 -0.23342,-1.250002 0,-0.483335 0.14997,-0.933334 0.14997,-0.433334 0.48336,-0.783336 0.33332,-0.333333 0.86666,-0.533334 0.53334,-0.200012 1.30001,-0.200012 1,0 2.28331,0.599998 1.30001,0.616668 2.73336,1.933337 z m 21.81667,-7.383341 q -0.98334,-0.2499925 -2.03332,-0.3500015 -1.05002,-0.116651 -2.13335,-0.116651 -3.15001,0 -4.70001,1.4166685 -1.55,1.433333 -1.55,4.383336 v 8.733343 h -4.68335 v 2.433326 h 4.68335 v 4.600007 l 2.90002,0.75 V 7.249685 h 7.51666 V 4.816349 h -7.51666 v -8.500006 q 0,-1.800005 0.94999,-2.700004 0.96665,-0.883336 2.83335,-0.883336 0.79998,0 1.74998,0.116682 0.95002,0.133341 1.98334,0.399998 z m 20.13336,20.616689 q -2.28334,0.483333 -3.93334,0.483333 -3.91667,0 -3.91667,-4.100006 V 4.816343 h 7.33334 V 2.399674 h -7.33334 V -9.4836715 h -2.95 V 2.399674 h -5.38335 v 2.416669 h 5.38335 v 2.766672 q 0,6.68334 6.96667,6.68334 1.73335,0 3.83334,-0.400001 z M 132.52836,7.249685 Z m 36.00004,-8.23334096 q 0,-1.95000104 -0.55,-3.58333704 -0.55,-1.616667 -1.58332,-2.783335 -1.03335,-1.150001 -2.51668,-1.800001 -1.48333,-0.6333335 -3.36665,-0.6333335 -1.80003,0 -3.23335,0.5499995 -1.41668,0.566666 -2.41669,1.649999 -0.98331,1.083337 -1.51664,2.683338 -0.51668,1.600001 -0.51668,3.683337 0,1.95000004 0.55,3.550004 0.54999,1.616668 1.58335,2.766669 1.03332,1.166668 2.51665,1.800002 1.48336,0.65 3.36668,0.65 1.79999,0 3.21668,-0.566666 1.43332,-0.55 2.41666,-1.633337 1,-1.066667 1.51665,-2.666668 0.53334,-1.600001 0.53334,-3.66667096 z M 165.56174,-1.116998 q 0,1.55000304 -0.35002,2.700004 -0.33332,1.166668 -0.96665,1.933334 -0.63333,0.783333 -1.55,1.166668 -0.90001,0.400001 -2.01666,0.400001 -1.30001,0 -2.23334,-0.516668 -0.91667,-0.500001 -1.51668,-1.350002 -0.58332,-0.85 -0.86666,-1.983335 -0.26668,-1.11666596 -0.26668,-2.350002 0,-1.550002 0.33335,-2.71667 0.34998,-1.166668 0.98334,-1.95 0.63333,-0.76667 1.53331,-1.166671 0.90001,-0.383332 2.03336,-0.383332 1.3,0 2.21664,0.500002 0.93337,0.516664 1.51668,1.366668 0.60001,0.85 0.86666,1.966666 0.28332,1.133335 0.28332,2.383337 z m 7.84999,8.366683 h 2.65002 l 0.0834,-3.083336 q 1.48333,1.783336 2.91668,2.583338 1.44998,0.799999 2.91664,0.799999 2.60002,0 3.93334,-1.683335 1.35002,-1.683335 1.25,-5.00000396 h -2.93334 q 0.0499,2.20000296 -0.64999,3.18333596 -0.68333,1.000002 -2.01666,1.000002 -0.58335,0 -1.18333,-0.216672 -0.58334,-0.199983 -1.21667,-0.666667 -0.61667,-0.449999 -1.31667,-1.166667 -0.7,-0.716668 -1.50002,-1.733334 V -9.4836685 h -2.93333 z m 30.0167,-16.7333505 V 2.533016 q 0,0.783333 -0.0668,1.283334 -0.0499,0.500001 -0.18323,0.783333 -0.11671,0.300004 -0.31666,0.416667 -0.18324,0.116651 -0.4667,0.116651 -0.33333,0 -0.61664,-0.200012 -0.28331,-0.200013 -0.61667,-0.65 -0.31669,-0.45 -0.71669,-1.2 -0.38333,-0.733335 -0.91667,-1.816668 V -9.4836925 h -2.64999 V 2.216322 q 0,0.916665 -0.0668,1.483334 -0.0499,0.566666 -0.18323,0.883333 -0.11672,0.316667 -0.31667,0.433334 -0.20016,0.116651 -0.48335,0.116651 -0.29995,0 -0.56666,-0.166662 Q 194.99499,4.79965 194.66166,4.366311 194.345,3.932977 193.945,3.182977 193.54501,2.432976 192.99501,1.266309 V -9.4837045 h -2.66668 V 7.249685 h 2.21668 l 0.13334,-3.183336 q 0.43331,0.950001 0.83331,1.61667 0.41668,0.666667 0.85,1.066668 0.43334,0.416667 0.91667,0.599998 0.50002,0.200013 1.10002,0.200013 1.34999,0 2.04999,-0.883333 0.7,-0.883336 0.7,-2.733336 0.39999,0.866666 0.78333,1.533333 0.38333,0.683335 0.81668,1.133335 0.45,0.466669 0.98334,0.700002 0.53334,0.249993 1.23334,0.249993 3.14997,0 3.14997,-4.850005 V -9.4836595 Z"
       id="path4" /><path
       style="font-size:11.2889px;line-height:1.25;font-family:Consolas;-inkscape-font-specification:Consolas;text-align:center;text-anchor:middle;fill:#3e6cd7;stroke-width:0.799999"
       d="m 178.46163,43.188667 h -4.95 V 45.572 h 7.88334 V 24.438645 h 4.98335 v -2.41667 h -13.41668 v 2.41667 h 5.49999 z M 206.095,30.521985 q 0,-1.950001 -0.55,-3.583337 -0.54999,-1.616667 -1.58335,-2.783335 -1.03332,-1.150001 -2.51665,-1.800001 -1.48333,-0.633334 -3.36668,-0.633334 -1.79999,0 -3.23334,0.549999 -1.41666,0.566667 -2.41666,1.65 -0.98334,1.083337 -1.51668,2.683338 -0.51665,1.600001 -0.51665,3.683337 0,1.95 0.55,3.550004 0.55,1.616668 1.58332,2.766669 1.03335,1.166668 2.51668,1.800002 1.48333,0.65 3.36668,0.65 1.8,0 3.21665,-0.566666 1.43335,-0.55 2.41666,-1.633337 1.00001,-1.066667 1.51668,-2.666668 0.53334,-1.600001 0.53334,-3.666671 z m -2.96666,-0.133342 q 0,1.550003 -0.35001,2.700004 -0.33333,1.166668 -0.96665,1.933334 -0.63336,0.783333 -1.55003,1.166668 -0.89998,0.400001 -2.01667,0.400001 -1.29997,0 -2.23334,-0.516668 -0.91664,-0.500001 -1.51665,-1.350002 -0.58334,-0.85 -0.86666,-1.983335 -0.26668,-1.116666 -0.26668,-2.350002 0,-1.550002 0.33332,-2.71667 0.35002,-1.166668 0.98335,-1.95 0.63332,-0.76667 1.53334,-1.166671 0.90001,-0.383332 2.03332,-0.383332 1.30001,0 2.21668,0.500002 0.93333,0.516664 1.51668,1.366668 0.59998,0.85 0.86666,1.966666 0.28331,1.133335 0.28331,2.383337 z"
       id="path2" /><path
       style="font-size:11.2889px;line-height:1.25;font-family:Consolas;-inkscape-font-specification:Consolas;text-align:center;text-anchor:middle;fill:#b7b7b7;stroke-width:0.788689"
       d="M 172.91995,13.54668 V 16.28 H 206.095 v -2.73332 z"
       id="path3" /></g></svg>
