<?xml version="1.0" standalone="no"?><!-- Generator: Gravit.io --><svg xmlns="http://www.w3.org/2000/svg" xmlns:xlink="http://www.w3.org/1999/xlink" style="isolation:isolate" viewBox="0 0 1015 788" width="1015" height="788"><defs><clipPath id="_clipPath_CieLNSwhbhztvtkAMURSeqFGo5HP7dlM"><rect width="1015" height="788"/></clipPath></defs><g clip-path="url(#_clipPath_CieLNSwhbhztvtkAMURSeqFGo5HP7dlM)"><g><path d=" M 409 787.4 C 393.9 784.6 387.3 782.2 383 777.5 C 380.9 775.3 380.5 773.9 380.6 769.2 C 380.7 764.2 381.6 761.5 388.2 748 C 408.7 706.2 420.9 662.4 429.9 599.5 C 433.4 575.6 438.5 526.2 437.7 525.3 C 437.4 525.1 433.7 524 429.4 522.9 C 414.7 519.2 397.7 510.7 382.8 499.4 C 374.9 493.5 358.8 477.8 350.5 467.8 L 346.5 463 L 335 466.5 C 294.6 478.9 312.3 410 314.4 407.9 C 314.7 407.6 313.2 402.8 311 397.2 C 308.8 391.7 305.6 382 303.9 375.8 C 302.1 369.6 300.6 364.4 300.4 364.2 C 300.3 364 294.8 365.7 288.2 367.9 C 252.3 379.9 204.1 383.3 174 375.9 C 160.7 372.6 151.9 368.1 143.9 360.4 C 140.1 356.7 137 353.3 137 352.8 C 137 352.4 137.9 352 139.1 352 C 140.9 352 140.5 351.1 136.2 345 C 132.3 339.5 130.1 337.3 126 335.3 C 119 331.8 110 322.8 106.6 315.9 C 103.8 310 102.3 301.1 103.4 296.7 C 104.8 290.9 110.9 286.5 120.1 284.6 L 122.6 284.1 L 120.8 274.3 C 119.8 268.9 118.7 257.7 118.4 249.4 L 117.7 234.2 L 114.6 233.3 C 111.3 232.4 107 227 107 223.7 C 107 221.6 107.9 221.7 114.2 224.4 L 117.8 225.9 L 118.2 221.6 C 118.5 217.7 118.2 217 115.3 214.9 C 111.5 212 108.4 206.9 107.5 201.8 C 106.5 196.6 107.9 196.9 113.7 203.1 C 116.3 205.9 118.6 207.7 118.8 207.1 C 119 206.5 117.6 203.4 115.7 200.3 C 112.2 194.6 109 187.6 109 185.9 C 109 183.8 111 185.4 115.6 191.1 L 120.4 197.1 L 122.2 188.9 C 123.2 184.3 126.2 174.2 128.8 166.4 L 133.7 152.2 L 125.1 150.6 C 108.3 147.5 95.3 146 81.2 145.3 C 72.8 145 66.7 144.2 66.3 143.6 C 64.8 141.2 64.2 131.2 65.1 123.5 C 65.6 119 67.2 110.3 68.8 104.2 C 70.3 98 71.4 93 71.2 93 C 71 93 69.1 96.9 66.9 101.6 C 62.6 110.7 58.9 124.2 56.9 137.7 C 56.3 142.6 55.3 146 54.6 146 C 54 146 48.3 145.3 42 144.5 C 35.6 143.8 25.1 142.8 18.5 142.5 C 2 141.7 0 141.3 0 139.1 C 0 135.5 17 103.2 25.9 89.9 C 45.1 61.1 65.7 42.4 92.9 29.1 C 98.4 26.4 103.5 24 104.1 23.8 C 104.9 23.5 104.7 21.9 103.6 18 C 101.5 10.9 101.6 7.2 104.1 3.1 L 106.1 -0.2 L 113.3 0.2 C 121.1 0.6 124.3 2.1 135.4 10.9 L 140.9 15.2 L 149.1 14.1 C 167.5 11.6 184.2 13.4 203.2 19.9 C 220.3 25.7 231 30.4 270.5 50 C 290.3 59.9 312.1 70.1 319 72.9 C 331.7 77.9 350.8 84 354 84 C 355 84 357.6 81.6 359.8 78.8 C 364.9 72 375.4 61.3 381.9 56.1 C 388 51.3 392.3 50.3 397.1 52.3 C 401.5 54.2 403.7 56.2 408.8 63.2 C 417.8 75.5 423.9 89.7 427.7 107.2 C 430.3 119.1 430.3 159.8 427.7 171.7 C 423.9 189.5 417.5 205 408.3 218.6 C 405.1 223.4 401.9 228.3 401.1 229.4 C 399.9 231.3 400.3 233 405 245.4 C 418.6 281.8 436.2 310.7 466.7 346.8 L 469.5 350 L 476.5 346.4 C 480.4 344.4 490.5 338.8 499 334 C 507.5 329.1 518 323.7 522.3 322 C 547.1 312.1 578.5 311.9 601.1 321.4 C 602.3 321.9 604.4 319.2 610.2 309.3 C 629.5 276.6 654.4 250.9 676.6 240.9 C 691.2 234.2 712.4 230 734.5 229.3 C 760.8 228.4 782.3 231.9 804.5 240.5 C 864.1 263.6 921.2 326 961.3 411.7 C 989.1 471.1 1012.1 567.2 1014.7 635.5 L 1015.3 651.6 L 989.5 666.3 C 975.4 674.4 963.5 680.9 963.3 680.6 C 963 680.3 963.5 673.7 964.5 665.8 C 965.5 657 966.3 641.4 966.6 625.5 L 966.9 599.5 L 965.1 610.5 C 964 616.6 960.9 635.9 958 653.5 C 955.1 671.1 952.6 685.8 952.4 686.2 C 952.1 686.6 950.5 687.4 948.7 687.9 C 946.9 688.4 936.3 692 925 695.8 C 881.7 710.6 811.7 734.5 794.8 740.2 L 777 746.2 L 776 749.9 C 773.9 758 766.5 765.2 757 768.5 C 740.5 774.3 702 775.4 671.7 770.9 C 658.6 768.9 653.8 764.2 653.2 752.6 C 652.9 746.5 653.5 742.6 657 728.9 C 660.8 714.3 661.3 710.9 661.7 697.7 C 662 689.3 661.7 678.1 661.1 671.7 C 654.2 606.5 636.1 563.2 589.7 500.8 C 585.3 494.8 581.5 490 581.1 490 C 580.8 490 578.2 492.2 575.4 494.8 C 571.6 498.3 570.1 500.5 569.6 503.4 C 569.2 505.5 569.1 507.4 569.3 507.6 C 569.5 507.8 572.4 508.7 575.6 509.6 C 592.1 513.8 597.2 519.4 607 543.9 C 623.7 585.8 632.9 634.2 634.5 689 C 635.2 711.9 634.4 720.8 630.8 727.9 C 624.8 739.6 610.8 743.1 569.1 743.1 C 549.6 743.1 528.6 741.9 520.4 740.4 L 517.3 739.8 L 515.2 748.9 C 511.5 764.9 504.7 775.2 494.3 780.7 C 484.2 786.1 475.3 787.3 441.5 787.6 C 425 787.7 410.4 787.6 409 787.4 Z  M 530.5 664.5 C 538.5 624.4 535 586 519 541 C 516.2 533 513.6 525.7 513.3 524.8 C 513 523.7 511.8 523 510.3 523 C 508.5 523 508 523.4 508.4 524.8 C 513.3 541.5 518.8 570.9 521.4 595.5 C 524.7 626.2 525.7 672.1 523.5 687.5 C 522.4 694.7 528.3 675.4 530.5 664.5 Z  M 770.4 668.3 C 790.2 607.5 795.2 567.4 789.4 515 C 786.7 490.2 777.9 453.4 770 433.6 C 757.7 402.6 735.4 375 710.6 360.2 C 691.6 348.8 669.7 345.2 648.8 350.1 L 640 352.2 L 644.3 358.3 C 658 377.7 665.8 399.7 668.1 425.5 C 668.9 435.1 668.9 445.5 668.1 464.5 C 667.5 478.8 667.3 495.1 667.7 500.6 L 668.3 510.8 L 674.4 511.8 C 683.5 513.3 689.2 516.4 695.6 523.3 C 700.5 528.6 703.4 533.7 716.6 560.6 C 738.9 605.9 754.1 642.8 762.7 672.2 C 764.2 677.6 765.6 682 765.7 682 C 765.8 682 767.9 675.8 770.4 668.3 Z " fill="rgb(32,51,102)"/></g><g><path d=" M 409 787.4 C 393.9 784.6 387.3 782.2 383 777.5 C 380.9 775.3 380.5 773.9 380.6 769.2 C 380.7 764.2 381.6 761.5 388.2 748 C 408.7 706.2 420.9 662.4 429.9 599.5 C 433.4 575.6 438.5 526.2 437.7 525.3 C 437.4 525.1 433.7 524 429.4 522.9 C 414.7 519.2 397.7 510.7 382.8 499.4 C 374.9 493.5 358.8 477.8 350.5 467.8 L 346.5 463 L 335 466.5 C 294.6 478.9 312.3 410 314.4 407.9 C 314.7 407.6 313.2 402.8 311 397.2 C 308.8 391.7 305.6 382 303.9 375.8 C 302.1 369.6 300.6 364.4 300.4 364.2 C 300.3 364 294.8 365.7 288.2 367.9 C 252.3 379.9 204.1 383.3 174 375.9 C 160.7 372.6 151.9 368.1 143.9 360.4 C 140.1 356.7 137 353.3 137 352.8 C 137 352.4 137.9 352 139.1 352 C 140.9 352 140.5 351.1 136.2 345 C 132.3 339.5 130.1 337.3 126 335.3 C 119 331.8 110 322.8 106.6 315.9 C 103.8 310 102.3 301.1 103.4 296.7 C 104.8 290.9 110.9 286.5 120.1 284.6 L 122.6 284.1 L 120.8 274.3 C 119.8 268.9 118.7 257.6 118.4 249.2 L 117.7 233.8 L 121.1 234.2 L 124.5 234.5 L 125.1 248 C 125.8 263.3 128.8 283 130.5 283.6 C 132.4 284.4 138.9 281.1 140.5 278.6 C 141.4 277.3 143 271.7 144.2 266.1 L 146.3 256 L 150 256 C 153.5 256 153.7 256.2 153.3 258.8 C 152.9 261.3 153 261.4 154.4 259.7 C 155.8 257.8 158.3 247.8 159.6 238.5 C 160 235.8 162.2 229 164.6 223.5 C 167 218 169 213.1 169 212.5 C 168.9 211.1 161 220.1 158 225 C 156.6 227.1 155.2 229 154.8 229 C 153.3 229 138 216.1 129.8 207.8 C 122.8 200.8 121 198.4 121 196.1 C 121 190.2 131.5 155.4 134.1 152.5 C 135 151.6 150.3 154.6 159.5 157.4 C 161.7 158.1 166.9 159.7 171 161 C 206 171.7 251.3 192.5 282.3 212.1 C 288.3 215.9 293.2 219 293.3 219 C 293.4 219 293.5 208.8 293.6 196.2 C 293.7 174.9 293.8 172.9 296.3 163.5 C 303 138.5 317.1 121.5 335.7 116 C 339.5 114.8 340.1 114.2 342.1 109.3 C 343.3 106.3 346.8 99.9 349.8 95.2 C 352.8 90.4 355.3 86 355.4 85.4 C 356 81.8 372.5 63.6 381.9 56.1 C 388 51.3 392.3 50.3 397.1 52.3 C 401.5 54.2 403.7 56.2 408.9 63.3 C 423.1 82.7 428.8 102 429.7 133.2 C 430.5 161.5 428.6 174.4 420.4 195.7 C 415.7 207.9 402.4 229.9 399.6 230 C 399.1 230 396.9 232 394.6 234.4 C 392.4 236.7 389.7 239.1 388.7 239.7 C 387.5 240.3 386.1 243.7 384.6 249.8 L 382.2 258.9 L 386.7 272.1 C 392.2 288.4 394 297.6 394 308.8 C 394 335.5 379.1 353 348.7 362.5 C 343.9 364 340 365.5 340 365.9 C 340.2 371.1 355.1 422.4 356.9 424.3 C 357.8 425.2 368.1 420.4 375 415.7 C 384.1 409.6 393.3 401.5 399.2 394.3 C 402.6 390.3 405.5 387.1 405.7 387.4 C 406.3 388 400.7 399.1 397 404.6 C 395.2 407.3 390.3 412.8 386.3 416.8 C 380.4 422.5 376.7 425.1 368.9 428.9 L 359 433.8 L 364.7 441.1 C 389.2 473 426 499.9 467.8 516.4 C 482.2 522.1 481.4 522.4 488.7 509.5 C 505.4 480.2 514.4 449.2 512.5 427.6 C 511.1 410.9 503.8 390 495.8 379.6 C 494 377.4 487.5 370.3 481.3 363.8 C 475.1 357.4 470 351.6 470 350.8 C 470 350.1 472.1 348.5 474.8 347.3 C 477.4 346.1 487.2 340.7 496.5 335.4 C 522.5 320.5 535.3 316.1 556.5 314.5 C 572.7 313.3 598 317.9 602.8 322.9 C 603.7 323.9 606.3 325.7 608.6 326.8 L 612.6 328.9 L 616.5 324 C 619.9 319.7 630.8 310.5 636.1 307.5 C 637 307 641.2 304.3 645.2 301.5 C 654.8 294.9 654.5 295.1 669.5 287.6 C 688.1 278.4 695.4 275.8 715.5 271.3 C 724.5 269.3 750.7 269.1 761 270.9 C 765.1 271.7 770.5 272.6 773 273.1 C 805.1 278.9 831.8 294.1 852.9 318.4 C 856.9 323 861 327.9 861.9 329.3 C 862.8 330.7 864.7 333.3 866.2 335.2 C 871.2 341.5 883.8 366.4 886.9 376 C 888.1 379.6 889.4 383.4 889.9 384.5 C 894.4 394.5 899 421.3 901 449 C 903 476.4 901.4 526.5 897.5 562.5 C 894.2 592.4 884.2 656.2 879.6 676.5 C 878.8 679.8 877.4 687.1 876.4 692.7 C 875.5 698.3 874.4 703.3 874.1 703.8 C 873.5 704.7 862.8 708.5 805.5 727.9 L 776.5 737.8 L 776.4 744.3 C 776.2 755.2 769.6 763.7 758.2 768 C 741.5 774.3 703 775.6 671.7 770.9 C 658.6 768.9 653.8 764.2 653.2 752.6 C 652.9 746.5 653.5 742.6 657 728.9 C 660.8 714.3 661.3 710.9 661.7 697.7 C 662 689.3 661.7 678.1 661.1 671.7 C 654.2 606.5 636.1 563.2 589.7 500.8 C 585.3 494.8 581.5 490 581.1 490 C 580.8 490 578.2 492.2 575.4 494.8 C 571.6 498.3 570.1 500.5 569.6 503.4 C 569.2 505.5 569.1 507.4 569.3 507.6 C 569.5 507.8 572.4 508.7 575.6 509.6 C 592.1 513.8 597.2 519.4 607 543.9 C 623.7 585.8 632.9 634.2 634.5 689 C 635.2 711.9 634.4 720.8 630.8 727.9 C 624.8 739.6 610.8 743.1 569.1 743.1 C 549.6 743.1 528.6 741.9 520.4 740.4 L 517.3 739.8 L 515.2 748.9 C 511.5 764.9 504.7 775.2 494.3 780.7 C 484.2 786.1 475.3 787.3 441.5 787.6 C 425 787.7 410.4 787.6 409 787.4 Z  M 785.4 674.8 C 813.6 608.7 827.4 564.1 833.7 519 C 836.1 501.5 836.1 465.8 833.7 450 C 830 426.1 824.5 408.1 815 388.5 C 795.9 349.1 769.3 325.1 736.3 317.4 C 713.5 312.1 686.3 314.5 658.1 324.2 C 644.9 328.7 626 336.9 626 338 C 626 338.5 629.5 342.4 633.8 346.7 C 645.8 358.9 652.7 369.4 659 385.4 C 667.5 406.9 669.7 426.1 668.1 464.5 C 667.5 478.8 667.3 495.1 667.7 500.6 L 668.3 510.8 L 674.4 511.8 C 683.5 513.3 689.2 516.4 695.6 523.3 C 700.5 528.6 703.4 533.7 716.6 560.6 C 725 577.8 735.3 599.6 739.4 609.1 C 752 638.7 763.8 673.1 766.8 689 C 767.3 692 768.6 697.2 769.5 700.4 L 771.3 706.4 L 773.1 702.8 C 774.1 700.8 779.7 688.2 785.4 674.8 Z  M 530.5 664.5 C 538.5 624.4 535 586 519 541 C 516.2 533 513.6 525.7 513.3 524.8 C 513 523.7 511.8 523 510.3 523 C 508.5 523 508 523.4 508.4 524.8 C 513.3 541.5 518.8 570.9 521.4 595.5 C 524.7 626.2 525.7 672.1 523.5 687.5 C 522.4 694.7 528.3 675.4 530.5 664.5 Z  M 303.5 312.6 C 304.2 308.9 301.9 302.3 299.6 301.4 C 298.8 301.1 297.2 301.4 296 302 L 293.9 303.1 L 296.4 306.1 C 297.8 307.7 299.5 310.9 300.1 313 C 301.5 317.5 302.7 317.4 303.5 312.6 Z  M 321.7 301.3 C 320.6 295.1 313.5 289.5 307.4 290.2 C 303.1 290.7 303.5 292.5 308.4 294.4 C 311 295.4 314.4 297.9 316.7 300.5 C 318.8 302.9 320.9 304.9 321.4 304.9 C 321.9 305 322 303.4 321.7 301.3 Z  M 231 291.6 C 232.1 289.7 234.2 285.5 235.5 282.3 C 236.8 279.1 238.2 276.5 238.7 276.5 C 239.1 276.5 242.6 277.5 246.3 278.8 C 254.1 281.4 256.1 280.9 256.5 276.2 C 256.7 274.5 257.4 272.4 258.3 271.6 C 259.8 270.1 262 259.9 262 254.3 L 262 251.3 L 287.3 250.1 C 301.1 249.5 314.5 248.6 316.9 248.3 L 321.2 247.7 L 320.5 252 L 319.8 256.3 L 328.6 255.8 C 336 255.5 338.4 254.9 342.8 252.5 C 348 249.7 350.7 247.4 349.8 246.5 C 349.6 246.2 344.9 247.1 339.6 248.5 C 328.3 251.4 323 251.7 323 249.6 C 323 248.7 324.9 247.8 328.2 247.1 C 335.3 245.5 342.5 241.4 347.2 236.1 C 351.8 230.8 350.6 229.4 345.4 233.9 C 343.5 235.6 340.8 237 339.5 237 C 338.1 237 336.2 237.4 335.2 238 C 329.2 241.4 321.1 242.2 260.5 245.6 C 226.4 247.5 196.5 248.9 194.1 248.8 L 189.7 248.5 L 198.4 238.8 C 206.7 229.5 207 229 204.4 229 C 202.2 229 199.2 231.5 189.3 241.4 C 182.5 248.2 177 254.3 177 255 C 177 255.9 180 256 189.2 255.4 C 200.8 254.8 201.3 254.8 200.5 256.6 C 197 264.9 193.7 283.9 194.7 289.4 C 195.2 291.9 195.5 292 202.9 292.1 C 207.1 292.1 214.1 292.7 218.5 293.4 C 222.9 294.1 227 294.8 227.7 294.9 C 228.3 294.9 229.8 293.5 231 291.6 Z  M 328 284.6 C 328 281.9 323.3 277.4 319.4 276.4 C 317.9 276 316 276.4 314.2 277.6 L 311.5 279.4 L 314.5 280 C 318.3 280.8 323.3 283.4 324.9 285.4 C 326.8 287.7 328 287.4 328 284.6 Z  M 341.5 268.1 L 344.5 266.6 L 337.3 265.8 C 333.4 265.4 327.6 264.2 324.4 263 C 321.2 261.9 318.5 261.1 318.4 261.3 C 318.3 261.4 317.9 262.7 317.5 264.1 C 317 266.3 317.3 266.9 319.7 267.9 C 327.2 271 335.9 271.1 341.5 268.1 Z " fill="rgb(101,45,135)"/><path d=" M 207.2 287.8 C 206.5 287.1 206 285.2 206 283.5 C 206 279.7 207.6 278 211.2 278 C 215.7 278 217.7 284.1 214.2 287.3 C 212 289.3 208.9 289.5 207.2 287.8 Z " fill="rgb(101,45,135)"/><path d=" M 235.6 275.1 C 231.5 274.5 230.1 273.7 227.3 270.5 C 224.5 267.2 220 257.7 220 255 C 220 253.6 223 253.2 237.8 252.5 L 251 251.9 L 251 256.2 C 251 261.1 248.3 267.6 245.1 270.4 C 244 271.5 243 273.1 243 274.2 C 243 275.2 242.4 275.9 241.8 275.9 C 241.1 275.8 238.3 275.4 235.6 275.1 Z " fill="rgb(101,45,135)"/><path d=" M 447 499.1 C 437.4 494.3 419.5 483.6 418.6 482.1 C 418.3 481.7 419 480.1 420.1 478.4 C 424.1 472.6 431.1 457.7 434 449.2 C 441 427.8 445.3 399.7 447.2 362 L 448.4 337.9 L 450.9 340.7 C 463.3 354.2 465.1 357.3 467 369.5 C 467.6 373.4 468.5 378.1 469 380 C 473.4 397.6 474.8 438.3 471.6 455 C 470.7 459.7 469.5 466 468.9 469 C 468.4 472 467.5 474.9 467.1 475.5 C 466.6 476 465.9 478.3 465.6 480.5 C 464.9 484.1 462.6 490.2 458.2 500.2 L 456.5 503.9 L 447 499.1 Z " fill="rgb(101,45,135)"/><path d=" M 137.7 266.3 C 135.6 264.3 137.8 259 140.7 259 C 142.9 259 144.5 263.6 143 265.5 C 141.7 267 138.8 267.5 137.7 266.3 Z " fill="rgb(101,45,135)"/><path d=" M 143.3 247.6 C 140.4 244.6 138.7 241.7 137.7 237.9 C 136 231.9 134.9 224 135.7 224 C 136 224 140 227 144.7 230.6 L 153.2 237.3 L 152.6 241.8 C 152.3 244.3 151.3 247.1 150.5 248 C 149.7 248.9 149 250.2 149 250.8 C 149 252.9 147.6 252.1 143.3 247.6 Z " fill="rgb(101,45,135)"/><path d=" M 119.8 227.3 C 118.4 227 118 225.8 118 222.5 C 118 217.4 118.8 216.6 122.4 218.3 C 124.6 219.3 125 220.1 125 223.8 C 125 228.2 124.4 228.5 119.8 227.3 Z " fill="rgb(101,45,135)"/><path d=" M 121.2 210.4 C 119.1 208.9 118.1 206 119.8 206 C 120.3 206 121.6 207.4 122.8 209 C 125.3 212.3 124.7 212.8 121.2 210.4 Z " fill="rgb(101,45,135)"/><path d=" M 214.5 170.3 C 203.9 165.8 177.5 156.3 167.9 153.5 C 162.7 152.1 157.9 150.7 157.2 150.4 C 156.2 150.1 156.9 148 159.9 142.5 L 163.9 135.1 L 159.1 125.3 C 156.4 119.9 147 102.2 138 86 C 120.9 55 111.5 36.7 108.5 28.7 C 107.5 26.1 106.4 24 106 24 C 105 24 102 13.1 102 9.4 C 102 7.8 102.9 5 104 3.2 C 105.9 0.1 106.2 0 112.3 0 C 117.2 0 119.8 0.6 123.4 2.5 C 128.4 5.1 141 14.9 141 16.1 C 141 16.5 144 19.7 147.6 23.2 C 160.1 35.1 194.6 75.2 204.4 89.2 L 205.9 91.3 L 219.2 84.7 C 237.8 75.5 260.6 68.6 280 66.4 C 285.2 65.9 286.2 66.2 297 71.3 C 303.3 74.2 310.2 77.2 312.3 77.9 C 314.3 78.6 316 79.5 316 80 C 316 80.4 313.4 81.1 310.3 81.4 C 298.3 82.9 277 90.7 266.5 97.5 C 254 105.6 243.2 116.7 234.3 130.3 C 229.7 137.4 225 147.2 225 149.6 C 225 150.4 224.5 151.8 224 152.8 C 223.4 153.7 222.4 158.6 221.7 163.7 L 220.5 172.8 L 214.5 170.3 Z " fill="rgb(101,45,135)"/></g><g><path d=" M 409 787.4 C 393.7 784.6 387.3 782.2 383 777.5 C 380.9 775.3 380.5 773.9 380.6 769.2 C 380.7 764.2 381.6 761.5 388.2 748 C 408.7 706.2 420.9 662.4 429.9 599.5 C 433.4 575.6 438.5 526.2 437.7 525.3 C 437.4 525.1 433.7 524 429.4 522.9 C 414.7 519.2 397.7 510.7 382.8 499.4 C 374.9 493.5 358.8 477.8 350.5 467.8 L 346.5 463 L 335 466.5 C 294.6 478.9 312.3 410 314.4 407.9 C 314.7 407.6 313.2 402.8 311 397.2 C 308.8 391.7 305.6 382 303.9 375.8 C 302.1 369.6 300.6 364.4 300.4 364.2 C 300.3 364 294.8 365.7 288.2 367.9 C 252.3 379.9 204.1 383.3 174 375.9 C 160.7 372.6 151.9 368.1 143.9 360.4 C 140.1 356.7 137 353.3 137 352.8 C 137 352.4 137.9 352 139.1 352 C 140.9 352 140.5 351.1 136.2 345 C 132.3 339.5 130.1 337.3 126 335.3 C 119 331.8 110 322.8 106.6 315.9 C 103.8 310 102.3 301.1 103.4 296.7 C 104.8 290.9 110.9 286.5 120.1 284.6 L 122.6 284.1 L 120.8 274.3 C 119.8 268.9 118.7 257.6 118.4 249.2 L 117.7 233.8 L 121.1 234.2 L 124.5 234.5 L 125.1 248 C 125.7 261.7 128.5 281.8 130 283.4 C 131.2 284.6 136.3 282.5 143.1 277.9 C 148.1 274.5 149 273.4 151.9 266.3 C 155.8 257.2 158.4 247.6 159.5 239.4 C 159.9 236 162.1 229.3 164.6 223.6 C 167 218.1 169 213.1 169 212.5 C 168.9 211.1 161 220.1 158 225 C 156.6 227.1 155.2 229 154.8 229 C 153.3 229 138 216.1 129.8 207.8 C 122.8 200.8 121 198.4 121 196.1 C 121 190.2 131.5 155.4 134.1 152.5 C 135 151.6 150.3 154.6 159.5 157.4 C 161.7 158.1 166.9 159.7 171 161 C 206 171.7 251.3 192.5 282.3 212.1 C 288.3 215.9 293.2 219 293.3 219 C 293.4 219 293.5 208.8 293.6 196.2 C 293.7 174.9 293.8 172.9 296.3 163.5 C 303 138.5 317.1 121.5 335.7 116 C 339.5 114.8 340.1 114.2 342.1 109.3 C 343.3 106.3 346.8 99.9 349.8 95.2 C 352.8 90.4 355.3 86 355.4 85.4 C 356 81.8 372.5 63.6 381.9 56.1 C 388 51.3 392.3 50.3 397.1 52.3 C 401.5 54.2 403.7 56.2 408.9 63.3 C 423.1 82.7 428.8 102 429.7 133.2 C 430.5 161.5 428.6 174.4 420.4 195.7 C 415.7 207.9 402.4 229.9 399.6 230 C 399.1 230 396.9 232 394.6 234.4 C 392.4 236.7 389.7 239.1 388.7 239.7 C 387.5 240.3 386.1 243.7 384.6 249.8 L 382.2 258.9 L 386.7 272.1 C 392.2 288.4 394 297.6 394 308.8 C 394 335.5 379.1 353 348.7 362.5 C 343.9 364 340 365.5 340 365.9 C 340.2 371.1 355.1 422.4 356.9 424.3 C 357.8 425.2 368.1 420.4 375 415.7 C 384.1 409.6 393.3 401.5 399.2 394.3 C 402.6 390.3 405.5 387.1 405.7 387.4 C 406.3 388 400.7 399.1 397 404.6 C 395.2 407.3 390.3 412.8 386.3 416.8 C 380.4 422.5 376.7 425.1 368.9 428.9 L 359 433.8 L 364.7 441.1 C 389.2 473 426 499.9 467.8 516.4 C 482.2 522.1 481.4 522.4 488.7 509.5 C 505.4 480.2 514.4 449.2 512.5 427.6 C 511.1 410.9 503.8 390 495.8 379.6 C 494 377.4 487.5 370.3 481.3 363.8 C 475.1 357.4 470 351.6 470 350.8 C 470 350.1 472.1 348.5 474.8 347.3 C 477.4 346.1 487.2 340.7 496.5 335.4 C 522.5 320.5 535.3 316.1 556.5 314.5 C 572.7 313.3 597.9 317.9 602.8 322.9 C 603.7 323.9 606.3 325.7 608.5 326.8 L 612.4 328.8 L 616.4 324.3 C 620.5 319.6 634.8 308.5 646.5 300.8 C 677.9 280.3 708.9 269.9 738.5 269.8 C 763.7 269.8 795.9 277 812.5 286.4 C 814.7 287.6 818.3 289.7 820.5 290.9 C 830.5 296.6 846.4 310.7 856 322.5 C 885.3 358.6 897.9 396.6 901.2 459.3 C 904.1 516.1 897.1 582.8 877.4 685.1 L 873.7 704.7 L 829.6 719.7 C 805.3 728 785.4 734.4 785.2 734 C 785 733.5 788.2 726.5 792.3 718.3 C 817.6 667.9 838.2 609.8 853.4 546.8 C 863.4 505.7 865.5 489.3 864.7 458.8 C 864.2 436.2 863 427 857.9 407.3 C 850.2 377 837.4 351.8 821.3 334.9 C 804.5 317.4 774.2 301.4 749 296.9 C 738.5 295 716.6 295.3 705 297.5 C 683.2 301.5 653.9 313.6 630.7 328.1 L 620.9 334.2 L 631.2 344.3 C 645.6 358.5 652.2 368.2 659 385.4 C 667.5 406.9 669.7 426.1 668.1 464.5 C 667.5 478.8 667.3 495.1 667.7 500.6 L 668.3 510.8 L 674.4 511.8 C 683.5 513.3 689.2 516.4 695.6 523.3 C 700.5 528.6 703.4 533.7 716.6 560.6 C 746.4 621.2 758.2 652.5 769.9 701.5 C 775.7 725.5 776.1 728.2 776.2 740.2 C 776.3 750 776.1 751.2 773.6 755.3 C 768.3 764.4 760.2 768.8 743.7 771.5 C 718 775.7 669.3 773.4 660.8 767.6 C 655.2 763.8 653.6 760.6 653.2 752.6 C 652.9 746.5 653.5 742.6 657 728.9 C 660.8 714.3 661.3 710.9 661.7 697.7 C 662 689.3 661.7 678.1 661.1 671.7 C 654.2 606.5 636.1 563.2 589.7 500.8 C 585.3 494.8 581.5 490 581.1 490 C 580.8 490 578.2 492.2 575.4 494.8 C 571.6 498.3 570.1 500.5 569.6 503.4 C 569.2 505.5 569.1 507.4 569.3 507.6 C 569.5 507.8 572.4 508.7 575.6 509.6 C 592.1 513.8 597.2 519.4 607 543.9 C 623.7 585.8 632.9 634.2 634.5 689 C 635.2 711.9 634.4 720.8 630.8 727.9 C 624.8 739.6 610.8 743.1 569.1 743.1 C 549.6 743.1 528.6 741.9 520.4 740.4 L 517.3 739.8 L 515.2 748.9 C 511.5 764.9 504.7 775.2 494.3 780.7 C 484.3 786.1 475.3 787.2 441.5 787.6 C 425 787.7 410.4 787.6 409 787.4 Z  M 530.5 664.5 C 538.5 624.4 535 586 519 541 C 516.2 533 513.6 525.7 513.3 524.8 C 513 523.7 511.8 523 510.3 523 C 508.5 523 508 523.4 508.4 524.8 C 513.3 541.5 518.8 570.9 521.4 595.5 C 524.7 626.2 525.7 672.1 523.5 687.5 C 522.4 694.7 528.3 675.4 530.5 664.5 Z  M 303.5 312.6 C 304.2 308.9 301.9 302.3 299.6 301.4 C 298.8 301.1 297.2 301.4 296 302 L 293.9 303.1 L 296.4 306.1 C 297.8 307.7 299.5 310.9 300.1 313 C 301.5 317.5 302.7 317.4 303.5 312.6 Z  M 321.7 301.3 C 320.6 295.1 313.5 289.5 307.4 290.2 C 303.1 290.7 303.5 292.5 308.4 294.4 C 311 295.4 314.4 297.9 316.7 300.5 C 318.8 302.9 320.9 304.9 321.4 304.9 C 321.9 305 322 303.4 321.7 301.3 Z  M 231.8 290.1 L 234.8 285.2 L 245 284 L 255.1 282.7 L 256.6 279.2 C 258.8 273.7 261 264.5 261.7 257.6 L 262.3 251.3 L 287.4 250.1 C 301.2 249.4 314.5 248.6 316.9 248.3 L 321.2 247.7 L 320.5 252 L 319.8 256.3 L 328.6 255.8 C 336 255.5 338.4 254.9 342.8 252.5 C 348 249.7 350.7 247.4 349.8 246.5 C 349.6 246.2 344.9 247.1 339.6 248.5 C 328.3 251.4 323 251.7 323 249.6 C 323 248.7 324.9 247.8 328.2 247.1 C 335.3 245.5 342.5 241.4 347.2 236.1 C 351.8 230.8 350.6 229.4 345.4 233.9 C 343.5 235.6 340.8 237 339.5 237 C 338.1 237 336.2 237.4 335.2 238 C 329.2 241.4 321.1 242.2 260.5 245.6 C 226.4 247.5 196.5 248.9 194.1 248.8 L 189.7 248.5 L 198.4 238.8 C 206.7 229.5 207 229 204.4 229 C 202.2 229 199.2 231.5 189.3 241.4 C 182.5 248.2 177 254.3 177 255 C 177 255.9 180 256 189.2 255.4 C 200.8 254.8 201.3 254.8 200.5 256.6 C 197 264.9 193.7 283.9 194.7 289.4 C 195.2 291.9 195.5 292 202.9 292.1 C 207.1 292.1 214.1 292.7 218.5 293.4 C 222.9 294.1 227 294.8 227.7 294.9 C 228.3 294.9 230.2 292.8 231.8 290.1 Z  M 328 284.6 C 328 281.9 323.3 277.4 319.4 276.4 C 317.9 276 316 276.4 314.2 277.6 L 311.5 279.4 L 314.5 280 C 318.3 280.8 323.3 283.4 324.9 285.4 C 326.8 287.7 328 287.4 328 284.6 Z  M 341.5 268.1 L 344.5 266.6 L 337.3 265.8 C 333.4 265.4 327.6 264.2 324.4 263 C 321.2 261.9 318.5 261.1 318.4 261.3 C 318.3 261.4 317.9 262.7 317.5 264.1 C 317 266.3 317.3 266.9 319.7 267.9 C 327.2 271 335.9 271.1 341.5 268.1 Z " fill="rgb(234,66,139)"/><path d=" M 207.2 287.8 C 206.5 287.1 206 285.2 206 283.5 C 206 279.7 207.6 278 211.2 278 C 215.7 278 217.7 284.1 214.2 287.3 C 212 289.3 208.9 289.5 207.2 287.8 Z " fill="rgb(234,66,139)"/><path d=" M 227.9 271.1 C 224.7 267.7 220 258.1 220 255 C 220 253.6 223 253.2 237.8 252.5 L 251 251.9 L 251 256.2 C 250.9 265.7 243.4 275 235.8 275 C 232.3 275 231.1 274.4 227.9 271.1 Z " fill="rgb(234,66,139)"/><path d=" M 449.5 500.4 C 445.7 498.5 442.1 496.5 441.6 496 C 441 495.4 442 492.1 444.3 487.2 C 458.8 455.3 462.6 411.1 455.1 357.8 C 454.2 350.7 453.6 345 453.9 345 C 454.2 345 456.6 347.4 459.2 350.3 C 463.7 355.5 463.9 356.1 466.4 368.6 C 476.2 417.8 475.8 446.5 464.5 481.7 C 461.2 492.2 457.4 502.9 456.8 503.6 C 456.6 503.7 453.4 502.3 449.5 500.4 Z " fill="rgb(234,66,139)"/><path d=" M 137.7 266.3 C 135.6 264.3 137.8 259 140.7 259 C 142.9 259 144.5 263.6 143 265.5 C 141.7 267 138.8 267.5 137.7 266.3 Z " fill="rgb(234,66,139)"/><path d=" M 142.1 246.5 C 140.4 244.6 138.4 240.6 137.6 237.7 C 136 231.9 134.9 224 135.7 224 C 136 224 140 227 144.7 230.6 L 153.2 237.3 L 152.6 241.8 C 151.9 246.8 149.7 250 146.9 250 C 146 250 143.8 248.4 142.1 246.5 Z " fill="rgb(234,66,139)"/><path d=" M 119.8 227.3 C 118.4 227 118 225.8 118 222.5 C 118 217.4 118.8 216.6 122.4 218.3 C 124.6 219.3 125 220.1 125 223.8 C 125 228.2 124.4 228.5 119.8 227.3 Z " fill="rgb(234,66,139)"/><path d=" M 121.2 210.4 C 119.1 208.9 118.1 206 119.8 206 C 120.3 206 121.6 207.4 122.8 209 C 125.3 212.3 124.7 212.8 121.2 210.4 Z " fill="rgb(234,66,139)"/><path d=" M 211.5 169.1 C 206.6 167 198.2 163.8 193 162 C 187.8 160.2 183.1 158.3 182.6 157.9 C 180.7 156.2 189.1 140.1 197.9 128.5 C 210.9 111.2 231 97.2 255.9 88 C 272.8 81.8 305 75.4 310.4 77.3 C 315 78.8 315.6 79.8 312.4 80.5 C 302.7 82.6 299.7 83.3 292 85.7 C 274.2 91.3 260.4 99.7 248.3 112.3 C 239.3 121.7 233.5 130.1 228.3 140.9 C 223.7 150.6 222.1 156.3 221.2 165.4 L 220.5 172.8 L 211.5 169.1 Z " fill="rgb(234,66,139)"/><path d=" M 159 124.9 C 156.2 119.4 146.7 101.7 137.8 85.7 C 120.9 54.9 111.5 36.6 108.5 28.8 C 107.5 26.1 106.4 24 106 24 C 105 24 102 13.1 102 9.4 C 102 7.8 102.9 5 104.1 3.1 L 106.1 -0.3 L 113.4 0.2 C 118.8 0.6 121.8 1.3 124.6 3 C 129.2 5.8 141 15.1 141 15.9 C 141 16.2 146.3 21.9 152.8 28.5 C 159.2 35.1 168.9 45.7 174.4 52 C 185.6 65.1 206 90.8 206 91.8 C 205.9 92.2 203.4 94.3 200.3 96.5 C 191 103.1 179.3 114.7 171.5 125.2 L 164 135 L 159 124.9 Z " fill="rgb(234,66,139)"/></g><g><path d=" M 407.3 787 C 398.7 785.7 388.3 782.1 385.1 779.5 C 381.4 776.3 379.7 771.3 380.6 766.3 C 381 764.2 383.7 757.7 386.6 751.9 C 409.6 705.8 423.3 654.4 432.4 580.5 C 435.6 554.6 438.4 526 437.7 525.4 C 437.5 525.1 433.1 523.8 427.9 522.4 C 401.3 515.3 374.6 496.4 350.5 467.8 L 346.5 463 Q 276.28 617.153 213.217 614.175 C 150.154 611.197 75.015 535.554 44.25 483.75 C 36.25 439.25 39.559 432.25 40.2 409.4 C 40.6 393.9 41.7 390.2 47 387.5 C 51.7 385.1 57.8 385.7 70.8 390 C 92.232 397.045 84.08 371.972 112.336 408.663 C 122.786 442.998 166.824 527.344 206.384 532.569 C 245.944 537.793 314.2 405.2 313.1 402.7 C 310.6 397 304.8 379.6 302.5 371 C 301.5 367.4 300.6 364.4 300.4 364.2 C 300.3 364 296.2 365.2 291.2 366.9 C 265.8 375.7 242.9 379.3 213 379.3 C 185.6 379.4 170.5 376.7 155.5 369.2 C 150.8 366.9 137 354.6 137 352.8 C 137 352.4 137.9 352 139.1 352 C 140.9 352 140.5 351.1 136.2 345 C 132.3 339.4 130.1 337.3 125.9 335.3 C 123 333.8 118.1 330.1 115 327 C 107.6 319.6 103.9 312 103.3 303.2 C 102.9 297.4 103.1 296.1 105.2 293 C 107.8 289.2 112.2 286.6 118.6 285 L 122.6 284 L 120.8 274.3 C 119.8 268.9 118.7 257.6 118.4 249.2 L 117.7 233.8 L 121.1 234.2 L 124.5 234.5 L 125.1 248 C 125.7 261.7 128.5 281.8 130 283.4 C 131.2 284.6 136.3 282.5 143.1 277.9 C 148.1 274.5 149 273.4 151.9 266.3 C 155.8 257.2 158.4 247.6 159.5 239.4 C 159.9 236 162.1 229.3 164.6 223.6 C 167 218.1 169 213.1 169 212.5 C 168.9 211.1 161 220.1 158 225 C 156.6 227.1 155.2 229 154.8 229 C 153.3 229 137.9 216.1 129.6 207.7 L 120.7 198.8 L 121.3 193.9 C 122 187.8 127.1 170.4 131.1 159.9 C 133.2 154.4 134.7 152 135.8 152 C 137.6 152 156.3 156.4 161.5 158 C 209.1 172.9 247.5 190.1 282.3 212.2 C 288.3 215.9 293.2 219 293.3 219 C 293.4 219 293.5 208.8 293.6 196.2 C 293.7 174.9 293.8 172.9 296.3 163.5 C 303 138.5 317.1 121.5 335.7 116 C 339.5 114.8 340.1 114.2 342.1 109.3 C 343.3 106.3 346.8 99.9 349.8 95.2 C 352.8 90.4 355.3 86 355.4 85.3 C 355.9 82.1 374.8 61.4 383 55.2 C 390.5 49.5 397.2 50.3 404.2 57.8 C 416.7 71.2 426.2 93.6 429 116 C 430.3 126.7 430.3 154.3 429 163.5 C 426.5 181.1 420 199.7 411.4 214.2 C 406.9 221.8 393.1 237.2 388.7 239.7 C 387.5 240.3 386.1 243.7 384.6 249.8 L 382.2 258.9 L 386.7 272.1 C 392.2 288.4 394 297.6 394 308.8 C 394 335.5 379.1 353 348.7 362.5 C 343.9 364 340 365.5 340 365.9 C 340.2 371.1 355.1 422.4 356.9 424.3 C 357.8 425.2 368.1 420.4 375 415.7 C 384.1 409.6 393.3 401.5 399.2 394.3 C 402.6 390.3 405.5 387.1 405.7 387.4 C 406.3 388 400.7 399.1 397 404.6 C 395.2 407.3 390.3 412.8 386.3 416.8 C 380.4 422.5 376.7 425.1 368.9 428.9 L 359 433.8 L 364.7 441.1 C 389.2 473 426 499.9 467.8 516.4 C 482.2 522.1 481.4 522.4 488.7 509.5 C 505.4 480.2 514.4 449.2 512.5 427.6 C 511.1 410.9 503.8 390 495.8 379.6 C 494 377.4 487.5 370.2 481.2 363.7 C 475 357.3 470 351.6 470.2 351 C 470.6 349.7 499.6 333.4 514.5 326 C 521.1 322.8 530.1 319.2 534.5 318 C 550.7 313.8 570.8 313.2 585.7 316.6 C 593.3 318.3 603 322 603 323.1 C 603 323.6 604.9 324.9 607.3 326.1 C 615.3 330.2 622.8 335.9 632.1 345.2 C 642.6 355.6 644.8 358.4 650.8 368.5 C 656.2 377.7 661.3 390.6 664.4 403 C 668.3 418.6 669.3 434.4 668 464.8 C 667.5 479.2 667.3 495.4 667.6 500.8 L 668.3 510.7 L 674.8 511.9 C 683.8 513.6 689.8 516.9 696 523.7 C 700.4 528.5 703.8 534.5 715.7 558.8 C 746.8 622.3 758.1 652.2 769.9 701.5 C 775.6 725.5 776.1 728.2 776.2 740.2 C 776.3 750 776.1 751.2 773.6 755.3 C 768.3 764.4 760.2 768.8 743.7 771.5 C 717.9 775.7 669.4 773.4 660.7 767.6 C 652.7 762.2 651 751.9 655.5 735 C 662.5 708.7 663.6 693.5 660.5 666.5 C 653.4 605 635.4 562.4 591.3 502.8 C 586.1 495.7 581.6 490 581.3 490 C 581.1 490 578.6 491.9 575.9 494.2 C 571.4 497.9 569 502.3 569 506.7 C 569 507.4 570.9 508.4 573.3 509 C 584 511.7 587.6 513.6 593.1 519 C 597.7 523.5 599.5 526.4 603.4 535.4 C 613 557.6 621.9 587.6 626.9 614.5 C 634 652.6 637.1 710.6 632.8 723.1 C 629.5 732.9 623 738.1 610.9 740.6 C 596 743.7 540.8 743.5 520.9 740.4 L 517.3 739.8 L 515.2 748.8 C 510.1 770.8 500 781.4 480 785.6 C 471.5 787.4 416.5 788.5 407.3 787 Z  M 527 679.3 C 540 634 536.7 588.3 516.2 532.8 C 513 524.2 512.3 523 510.2 523 C 508.4 523 508 523.4 508.4 524.8 C 514 542.8 520.5 582.2 523.1 613.5 C 524.5 629.2 524.8 680.3 523.6 686.5 C 522.3 693.3 524 689.7 527 679.3 Z  M 634.2 416.7 C 632.2 406.6 631.7 402 632.5 402 C 633.1 402 635.8 402.7 638.4 403.6 C 641 404.5 643.3 405 643.6 404.7 C 643.9 404.4 641.4 401 638 397.1 L 632 390.1 L 634.4 381.3 C 635.8 376.5 636.7 372.4 636.5 372.2 C 636.4 372 633.9 373 631.1 374.4 C 628.3 375.8 625.9 377 625.7 377 C 625.5 377 622.5 370.3 618.9 362.1 C 615.4 353.9 612.4 347.3 612.2 347.5 C 612 347.6 613.1 354.6 614.5 363 C 616 371.3 616.9 378.4 616.6 378.7 C 616.3 379 613.2 377.9 609.8 376.3 C 598 370.7 597.9 371.2 607.9 381.3 L 617.2 390.8 L 615.1 399.8 C 614 404.7 613 409.3 613 410 C 613 410.6 615.5 409 618.5 406.5 L 624 401.8 L 625 404.6 C 629.6 416.6 636.5 433.1 636.7 432.3 C 636.9 431.9 635.7 424.8 634.2 416.7 Z  M 303.5 312.6 C 304.2 308.9 301.9 302.3 299.6 301.4 C 298.8 301.1 297.2 301.4 296 302 L 293.9 303.1 L 296.4 306.1 C 297.8 307.7 299.5 310.9 300.1 313 C 301.5 317.5 302.7 317.4 303.5 312.6 Z  M 321.7 301.3 C 320.6 295.1 313.5 289.5 307.4 290.2 C 303.1 290.7 303.5 292.5 308.4 294.4 C 311 295.4 314.4 297.9 316.7 300.5 C 318.8 302.9 320.9 304.9 321.4 304.9 C 321.9 305 322 303.4 321.7 301.3 Z  M 231.8 290.1 L 234.8 285.2 L 245 284 L 255.1 282.7 L 256.6 279.2 C 258.8 273.7 261 264.5 261.7 257.6 L 262.3 251.3 L 287.4 250.1 C 301.2 249.4 314.5 248.6 316.9 248.3 L 321.2 247.7 L 320.5 252 L 319.8 256.3 L 328.6 255.8 C 336 255.5 338.4 254.9 342.8 252.5 C 348 249.7 350.7 247.4 349.8 246.5 C 349.6 246.2 344.9 247.1 339.6 248.5 C 328.3 251.4 323 251.7 323 249.6 C 323 248.7 324.9 247.8 328.2 247.1 C 335.3 245.5 342.5 241.4 347.2 236.1 C 351.8 230.8 350.6 229.4 345.4 233.9 C 343.5 235.6 340.8 237 339.5 237 C 338.1 237 336.2 237.4 335.2 238 C 329.2 241.4 321.1 242.2 260.5 245.6 C 226.4 247.5 196.5 248.9 194.1 248.8 L 189.7 248.5 L 198.4 238.8 C 206.7 229.5 207 229 204.4 229 C 202.2 229 199.2 231.5 189.3 241.4 C 182.5 248.2 177 254.3 177 255 C 177 255.9 180 256 189.2 255.4 C 200.8 254.8 201.3 254.8 200.5 256.6 C 197 264.9 193.7 283.9 194.7 289.4 C 195.2 291.9 195.5 292 202.9 292.1 C 207.1 292.1 214.1 292.7 218.5 293.4 C 222.9 294.1 227 294.8 227.7 294.9 C 228.3 294.9 230.2 292.8 231.8 290.1 Z  M 328 284.6 C 328 281.9 323.3 277.4 319.4 276.4 C 317.9 276 316 276.4 314.2 277.6 L 311.5 279.4 L 314.5 280 C 318.3 280.8 323.3 283.4 324.9 285.4 C 326.8 287.7 328 287.4 328 284.6 Z  M 341.5 268.1 L 344.5 266.6 L 337.3 265.8 C 333.4 265.4 327.6 264.2 324.4 263 C 321.2 261.9 318.5 261.1 318.4 261.3 C 318.3 261.4 317.9 262.7 317.5 264.1 C 317 266.3 317.3 266.9 319.7 267.9 C 327.2 271 335.9 271.1 341.5 268.1 Z " fill="rgb(159,102,183)"/><path d=" M 207.2 287.8 C 206.5 287.1 206 285.2 206 283.5 C 206 279.7 207.6 278 211.2 278 C 215.7 278 217.7 284.1 214.2 287.3 C 212 289.3 208.9 289.5 207.2 287.8 Z " fill="rgb(159,102,183)"/><path d=" M 227.9 271.1 C 224.7 267.7 220 258.1 220 255 C 220 253.6 223 253.2 237.8 252.5 L 251 251.9 L 251 256.2 C 250.9 265.7 243.4 275 235.8 275 C 232.3 275 231.1 274.4 227.9 271.1 Z " fill="rgb(159,102,183)"/><path d=" M 137.7 266.3 C 135.6 264.3 137.8 259 140.7 259 C 142.9 259 144.5 263.6 143 265.5 C 141.7 267 138.8 267.5 137.7 266.3 Z " fill="rgb(159,102,183)"/><path d=" M 142.1 246.5 C 140.4 244.6 138.4 240.6 137.6 237.7 C 136 231.9 134.9 224 135.7 224 C 136 224 140 227 144.7 230.6 L 153.2 237.3 L 152.6 241.8 C 151.9 246.8 149.7 250 146.9 250 C 146 250 143.8 248.4 142.1 246.5 Z " fill="rgb(159,102,183)"/><path d=" M 119.8 227.3 C 118.5 227 118 225.8 118 223.2 C 118 217.8 119 216.7 122.3 218.3 C 124.6 219.3 125 220.1 125 223.8 C 125 228.2 124.4 228.5 119.8 227.3 Z " fill="rgb(159,102,183)"/><path d=" M 121.2 210.4 C 119.1 208.9 118.1 206 119.8 206 C 120.3 206 121.6 207.4 122.8 209 C 125.3 212.3 124.7 212.8 121.2 210.4 Z " fill="rgb(159,102,183)"/><path d=" M 159 124.9 C 156.2 119.4 146.7 101.7 137.8 85.7 C 120.8 54.7 112.2 38.1 108.9 29.7 C 107.8 26.9 106.4 24.3 106 24 C 104.9 23.3 102 12.5 102 9.2 C 102 5.5 104.8 1.1 107.6 0.4 C 112.3 -0.8 120.6 0.7 125.1 3.6 C 130.5 6.9 141 15.1 141 15.9 C 141 16.2 146.3 21.9 152.8 28.5 C 159.2 35.1 168.9 45.7 174.4 52 C 185.6 65.1 206 90.8 206 91.8 C 205.9 92.2 203.4 94.3 200.3 96.5 C 191 103.1 179.3 114.7 171.5 125.2 L 164 135 L 159 124.9 Z " fill="rgb(159,102,183)"/></g><g><path d=" M 413.5 779.9 C 402.9 778.6 394.1 776.4 391 774.1 C 386.8 771.1 387.3 767.7 394.1 754 C 419.3 702.7 433 648.5 442.4 562.5 C 443.8 549.9 445.5 532.4 446.2 523.8 C 446.8 515.1 447.8 508 448.2 508 C 448.7 508 450.8 508.9 452.8 510 C 458.3 512.9 467.2 516.7 473.2 518.6 C 476.1 519.5 479.1 520.8 479.8 521.3 C 481.4 522.6 483.8 519.5 489.1 508.9 C 492.8 501.6 493.4 502 497.3 514.8 C 516.9 577.8 522 663.1 510.4 732 C 506.5 755.2 504 762 496.9 769.1 C 491.5 774.5 486.6 776.5 474 778.5 C 461.4 780.4 425 781.3 413.5 779.9 Z " fill="rgb(170,169,194)"/><path d=" M 692 765.4 C 689.5 765.1 682.6 764.3 676.5 763.5 C 666.9 762.2 665.2 761.7 663.3 759.5 C 659.7 755.4 660.2 747.5 665.2 728.5 L 669.4 712.5 L 669.4 692 C 669.4 670.3 668.1 657.4 663.6 635.1 C 654 588.1 633.5 545.9 595.6 495.7 C 590.3 488.7 586 482.7 586 482.4 C 586 482.2 587.5 479.9 589.4 477.3 C 594.1 470.6 596.6 465.3 598.3 458.4 C 600.2 451 601.4 438 600.3 438 C 599.8 438 598.1 441.9 596.6 446.8 C 592.6 459.1 589.7 465.3 584.6 472.4 C 573 488.7 553.7 502.8 533.8 509.6 C 526 512.2 512.6 515 507.5 515 C 504.3 515 504.2 515 500.6 504.5 L 497 494 L 499.4 488.8 C 504 478.8 506.7 471.5 508.4 464.5 C 509.3 460.7 510.6 455.9 511.1 454 C 511.7 452.1 512.4 445.1 512.7 438.5 C 513.5 420.2 510.8 407.7 502.3 390.3 C 497.5 380.7 491.1 372.1 484.8 367 C 482.8 365.3 479.7 362.2 478 360 L 474.9 356.1 L 480.9 353.1 C 484.2 351.4 492.6 346.7 499.7 342.7 C 517.2 332.5 523.2 329.7 532.5 326.7 C 547.4 322 569.6 320.9 584 324.1 C 608.3 329.5 632.9 350.4 646.4 377 C 659 401.8 661.5 418.2 660 465.4 C 659 498.8 659.9 516.1 663.2 522.2 L 665.5 526.5 L 665.8 522.6 L 666.1 518.7 L 671.6 519.4 C 686.8 521.2 691.1 526 707.7 559.9 C 714.6 574 722.8 591.2 726 598.2 C 743.3 635.6 758.9 681.6 766.4 717 C 769.7 732.7 770.2 738.6 769 744.9 C 766.2 759.9 753.4 764.8 715.5 765.5 C 705.1 765.6 694.5 765.6 692 765.4 Z  M 634.2 416.7 C 632.2 406.6 631.7 402 632.5 402 C 633.1 402 635.8 402.7 638.4 403.6 C 641 404.5 643.3 405 643.6 404.7 C 643.9 404.4 641.4 401 638 397.1 L 632 390.1 L 634.4 381.3 C 635.8 376.5 636.7 372.4 636.5 372.2 C 636.4 372 633.9 373 631.1 374.4 C 628.3 375.8 625.9 377 625.7 377 C 625.5 377 622.5 370.3 618.9 362.1 C 615.4 353.9 612.4 347.3 612.2 347.5 C 612 347.6 613.1 354.6 614.5 363 C 616 371.3 616.9 378.4 616.6 378.7 C 616.3 379 613.2 377.9 609.8 376.3 C 598 370.7 597.9 371.2 607.9 381.3 L 617.2 390.8 L 615.1 399.8 C 614 404.7 613 409.3 613 410 C 613 410.6 615.5 409 618.5 406.5 L 624 401.8 L 625 404.6 C 629.6 416.6 636.5 433.1 636.7 432.3 C 636.9 431.9 635.7 424.8 634.2 416.7 Z " fill="rgb(170,169,194)"/><path d=" M 547.5 736 C 535.2 735.3 518 733.4 517.4 732.7 C 517.3 732.6 517.9 728.3 518.6 723.2 C 519.5 717.2 520.9 712.3 522.4 709.7 C 532 692.9 539.8 661.4 541.5 632 C 543.2 604.9 536 565.9 523.1 531.5 C 520.8 525.6 519 520.6 519 520.4 C 519 520.2 519.9 520 521 520 C 524.9 520 542.7 513.7 551.5 509.1 C 556.5 506.6 560.8 504.4 561.3 504.2 C 561.7 504 562 505.9 562 508.5 C 562 512.9 564.8 520.1 567 521.5 C 567.6 521.9 568 520.7 568 518.6 C 568 516.6 568.4 515 568.9 515 C 569.4 515 572.7 515.9 576.2 517 C 586.6 520.2 590.2 523.5 595.4 534.2 C 609.3 563.6 620.8 608.9 625.5 653 C 627.7 673.7 628.6 710 627.1 717.2 C 625.6 724.2 622.6 728.7 617.9 731.2 C 610 735.2 575.5 737.6 547.5 736 Z " fill="rgb(170,169,194)"/><path d=" M 428 514.4 C 397.9 505.7 366.2 479.4 343 444 C 335.4 432.4 325.2 412.3 319.4 397.5 C 315 386 308.7 366.2 307.5 359.7 C 306.9 356.8 306.4 356 305.2 356.5 C 301.7 357.8 285.7 362 275 364.4 C 229.2 374.5 187.8 374.3 162.8 363.8 C 160.1 362.7 158 361.5 158 361.1 C 158 360.8 165 360.7 173.5 360.8 C 182 361 189 360.8 189 360.3 C 189 357.5 184.5 343.8 182.3 340.2 C 176.9 330.8 165.2 326.8 149.1 328.8 C 131.7 331 130.8 330.7 121.2 321.6 C 114.4 315.1 111 308.7 111 302.2 C 111 295.8 112.4 294.7 123.2 292 C 133.7 289.3 138.8 286 145.8 277.3 C 151.8 269.8 157.4 255 159.5 241.5 C 160.8 233 161.9 229.6 167.7 217.2 C 169 214.2 169.9 211.6 169.6 211.2 C 168.8 210.5 163 217 158.4 223.8 C 156.2 227.1 154.4 228.8 153.7 228.3 C 150.9 226.7 136.1 213.8 131.3 208.9 L 126.1 203.5 L 128.4 192.5 C 129.7 186.5 132.7 176.1 135 169.5 C 137.3 162.9 139.4 156.7 139.7 155.8 C 140.4 153.5 145.3 153.4 151.7 155.6 C 154.3 156.5 157.9 157.6 159.5 158.1 C 175.9 162.3 190.5 167.2 205 173.2 C 206.4 173.8 208.4 174.6 209.5 175.1 C 224.4 181.1 247.5 192.2 259.5 199 C 263.4 201.2 267.4 203.5 268.5 204 C 269.6 204.6 271.9 205.9 273.5 207 C 275.2 208.1 277.2 209.3 278 209.7 C 278.8 210.1 281.6 211.9 284.1 213.7 C 286.7 215.5 289.1 217 289.5 217 C 290 217 291.1 217.6 291.9 218.4 C 293.4 219.7 293.5 217.9 293.6 198.7 C 293.6 183.1 294.1 175.5 295.2 170 C 297.5 159.3 298.9 154.2 299.9 152.2 C 300.4 151.3 301.9 148.3 303.1 145.5 C 307.3 136.6 316.5 125.7 322.9 122.2 C 324.2 121.4 326.8 120 328.6 119 C 331.7 117.2 339 115.3 339 116.2 C 339 116.4 338.3 118.7 337.4 121.2 C 336.6 123.8 336 127.2 336.2 129 C 336.5 131.7 337.7 129.9 346.5 114.3 C 359.6 91.1 366 82.3 378.5 70.1 C 390.4 58.5 392.8 57.4 397.1 61.6 C 408.3 72.2 417.4 92.2 420.5 113 C 422.5 126 422.5 155 420.4 167.1 C 416.9 187.8 406.3 211.3 394.4 224.5 C 386.7 233.1 381.3 240.7 381.2 243.3 C 381.1 244.9 380.2 249.4 379.1 253.4 L 377.3 260.7 L 384.1 272.8 C 390 283.4 391 286.1 392.4 294.1 C 394.5 306.3 394.4 313.1 392.1 322.2 C 389.4 332.7 386.1 338.6 379.3 345.1 C 369.7 354.3 356.9 361 344 363.5 C 342.1 363.9 340.2 364.4 339.9 364.6 C 339.1 365.1 343.7 383.6 351 409 C 353.6 418 356.5 425 357.8 425 C 358.8 425 369.3 419.6 373.1 417.2 C 374.5 416.3 377.7 414.2 380.1 412.6 C 382.5 411.1 389.1 405 394.8 399.3 C 403.3 390.6 404.9 389.4 403.7 392.3 C 397.9 406 381.8 422.7 367.8 429.4 L 358.9 433.6 L 361.6 437.6 C 369.7 449.5 387.1 467.6 401.4 478.9 C 409.2 485 422 494 425 495.3 C 425.8 495.7 428.3 497.2 430.5 498.5 C 432.7 499.9 436 501.8 437.9 502.6 C 441.2 504.1 441.2 504.3 440.6 508.7 C 440.3 511.2 440 514.1 440 515.1 C 440 517.5 438.4 517.5 428 514.4 Z  M 303.4 315.4 C 305 311.3 304 306 300.9 302.5 C 299.2 300.6 297.4 299.3 296.9 299.6 C 296.4 299.9 296.2 300.5 296.5 301 C 296.8 301.4 296.3 302.1 295.4 302.4 C 294.1 302.9 294.3 303.5 296.3 306.2 C 297.7 308 299.3 311.2 300 313.3 C 301.2 317.2 302.4 318 303.4 315.4 Z  M 271 311.9 C 263.5 306.8 237.2 296 232.1 296 C 229.4 296 229 295 230.6 292.4 L 232.2 290.1 L 240.3 293 C 244.7 294.7 248.5 296 248.7 296 C 248.8 296 250.7 292.5 252.9 288.3 C 257.9 278.2 260.9 268.4 261.7 259.2 C 262 255.1 262.8 251.7 263.4 251.5 C 264 251.3 275.3 250.6 288.5 250 C 301.7 249.5 314.4 248.8 316.8 248.5 L 321 248 L 320.8 252.3 L 320.5 256.5 L 328.3 256.3 C 336.9 256.1 342.5 254 348.8 248.3 C 353.2 244.5 351.8 244.1 343.8 246.8 C 335.6 249.7 330.7 250.7 326.7 250.2 C 321.7 249.6 322 248.4 327.3 247.7 C 329.7 247.4 333.9 245.9 336.7 244.5 C 342 241.7 351.8 232.5 350.7 231.4 C 350.3 231 346.8 232.3 342.8 234.3 C 336.2 237.5 326.8 240.8 321.5 241.7 C 319.5 242.1 313.4 242.4 294.5 243.5 C 289 243.7 280 244.2 274.5 244.5 C 269 244.9 260.9 245.3 256.5 245.5 C 252.1 245.7 243.8 246.2 238 246.5 C 223.5 247.3 213.4 247.8 200.6 248.4 L 189.8 248.8 L 192.7 245.7 C 194.3 243.9 197.8 240 200.4 237 C 203.1 234 206.4 230.3 207.7 228.8 C 211 225.1 208.7 225.1 202.9 228.8 C 197.5 232.3 177 252.8 177 254.8 C 177 256.1 178.8 256.2 189 255.7 L 201 255 L 199 260.1 C 196.6 266.1 194 280.3 194 287.2 C 194 290.3 193.6 291.9 193 291.5 C 192.4 291.1 188.3 291.2 183.8 291.6 C 173.2 292.5 175.8 293.6 191.8 295 C 229 298.3 230.7 298.6 254.8 307.4 C 269.3 312.8 274.2 314.2 271 311.9 Z  M 145 308 C 148.4 304.6 147.3 302.7 143.6 305.5 C 142.5 306.3 140 307 138.1 307 C 134.7 307.1 134.6 307.2 136.4 308.5 C 139.1 310.6 142.6 310.4 145 308 Z  M 200.1 307 C 198.8 305.9 197 305 196.1 305 C 195.2 305.1 196 305.9 198 307 C 202.5 309.4 203.1 309.4 200.1 307 Z  M 321.7 300.9 C 321 295.8 318.1 292.5 312.2 290.6 C 308.1 289.2 307.4 289.2 305.3 290.5 C 302.9 292.1 303 294 305.6 294 C 308.4 294 314.9 298 317.7 301.5 C 321.4 306.1 322.4 305.9 321.7 300.9 Z  M 328 284.8 C 328 283.5 327.2 281.5 326.2 280.3 C 324 277.6 315.1 274.5 313.6 276 C 313.1 276.5 313 277 313.4 277 C 313.9 277 313.8 277.6 313.2 278.3 C 312.3 279.3 313.3 280 317.5 281.5 C 320.5 282.5 323.7 284.1 324.6 285.2 C 326.9 287.6 328 287.5 328 284.8 Z  M 340 268.8 L 344.5 266.7 L 337 265.4 C 332.8 264.8 327 263.5 324 262.6 C 319.8 261.3 318.5 261.3 317.8 262.2 C 315.7 265.6 317.9 267.7 326 270.4 C 329.5 271.5 335.8 270.8 340 268.8 Z  M 390.2 171.5 C 394.1 162.2 396.9 150.4 397.6 139.9 C 398.3 130.9 397.4 118 396.1 118 C 395.6 118 394.8 123.2 394.1 129.6 C 392.4 146.5 389.4 160.7 384.4 175.9 C 382 183.3 380 189.6 380 189.9 C 380 191.4 387.6 177.7 390.2 171.5 Z " fill="rgb(170,169,194)"/><path d=" M 207 287.1 C 205.6 284.5 205.7 280.7 207.2 279.2 C 210.2 276.2 216 279 216 283.4 C 216 288.2 209.1 291 207 287.1 Z " fill="rgb(170,169,194)"/><path d=" M 231.5 274.1 C 230.4 273.6 228.7 272.4 227.8 271.4 C 225.7 269 221.4 260.4 220.5 256.8 C 219.9 254.3 220 254.1 224.2 253.6 C 226.5 253.3 233.6 252.8 239.9 252.5 L 251.3 251.9 L 250.6 257.5 C 249.2 269.7 240.1 277.6 231.5 274.1 Z " fill="rgb(170,169,194)"/><path d=" M 159 354 C 150.5 353.7 143 353.2 142.3 352.7 C 140.9 351.8 132.2 339.7 131.8 338 C 131.6 337.2 133.1 336.7 136 336.5 C 162.3 334.7 164 334.7 168.4 336.4 C 173.6 338.4 175 339.8 178.4 346.6 C 181.9 353.6 181.8 355 177.8 354.8 C 176 354.7 167.5 354.4 159 354 Z " fill="rgb(170,169,194)"/><path d=" M 137.7 266.3 C 135.6 264.3 137.8 259 140.7 259 C 142.9 259 144.5 263.6 143 265.5 C 141.7 267 138.8 267.5 137.7 266.3 Z " fill="rgb(170,169,194)"/><path d=" M 142.4 246.5 C 140.5 244.4 138.6 240.9 137.7 237.8 C 136.1 232 134.9 224 135.7 224 C 135.9 224 139.7 226.8 144.1 230.1 C 152 236.2 152 236.3 152 240.9 C 152 245.9 149.9 250 147.3 250 C 146.4 250 144.3 248.4 142.4 246.5 Z " fill="rgb(170,169,194)"/><path d=" M 161.9 116 C 158.4 109.1 155.4 103.2 155.2 102.8 C 155 102.3 156 102 157.4 102 C 163.9 102 170.4 96.9 173.9 89 C 176.2 83.7 178.2 72.6 177.4 69.3 C 177 68 177.2 67 177.6 67.1 C 178.5 67.1 199.2 93 199.7 94.7 C 199.9 95.2 196.5 98.6 192.1 102.3 C 184.8 108.4 175.7 118.1 170.4 125.5 L 168.2 128.4 L 161.9 116 Z " fill="rgb(170,169,194)"/><path d=" M 152.2 96.7 C 151 95.3 139 74 139 73.4 C 139 73.2 139.6 73 140.3 73 C 143.1 73 150.1 66.8 153 61.8 C 154.6 58.9 156.5 53.9 157.2 50.8 C 157.9 47.6 158.8 45 159.2 45 C 159.6 45 160 45.3 160 45.8 C 160.1 46.2 163 49.7 166.5 53.5 C 173.8 61.4 174.7 64.3 173.7 76 C 173 84.4 170.9 89.4 166.2 94.3 C 163.1 97.5 162 98 157.9 98 C 155.3 98 152.8 97.4 152.2 96.7 Z " fill="rgb(170,169,194)"/><path d=" M 134.7 65.8 C 128.8 55.3 125 48.1 125 47.3 C 125 46.8 126.3 45.7 127.9 44.7 C 131.4 42.7 136.6 35.1 138.2 29.8 C 138.8 27.7 139.6 26 139.9 26 C 140.3 26 143.9 29.3 147.9 33.4 L 155.3 40.8 L 154.6 46.5 C 153.7 54.6 150.5 61.3 145.4 66 C 139.8 71.2 137.7 71.1 134.7 65.8 Z " fill="rgb(170,169,194)"/><path d=" M 118.6 34.8 C 113.2 23.3 110 13.9 110 10 C 110 7.4 110.4 7 112.8 7 C 116.1 7 123.1 11 130.4 17 C 134.8 20.6 135.9 22.1 135.9 24.5 C 136 30.3 130 40.3 124.7 43.1 C 123.1 44 122.4 42.9 118.6 34.8 Z " fill="rgb(170,169,194)"/></g><g><path d=" M 413.792 780.246 C 403.192 778.946 394.392 776.746 391.292 774.446 C 387.092 771.446 387.592 768.046 394.392 754.346 C 419.592 703.046 433.292 648.846 442.692 562.846 C 444.092 550.246 445.792 532.746 446.492 524.146 C 447.092 515.446 448.092 508.346 448.492 508.346 C 448.992 508.346 451.092 509.246 453.092 510.346 C 458.592 513.246 467.492 517.046 473.492 518.946 C 476.392 519.846 479.392 521.146 480.092 521.646 C 481.692 522.946 484.092 519.846 489.392 509.246 C 493.092 501.946 493.692 502.346 497.592 515.146 C 517.192 578.146 522.292 663.446 510.692 732.346 C 506.792 755.546 504.292 762.346 497.192 769.446 C 491.792 774.846 486.892 776.846 474.292 778.846 C 461.692 780.746 425.292 781.646 413.792 780.246 Z " fill="rgb(200,151,219)"/><path d=" M 692.292 765.746 C 689.792 765.446 682.892 764.646 676.792 763.846 C 667.192 762.546 665.492 762.046 663.592 759.846 C 659.992 755.746 660.492 747.846 665.492 728.846 L 669.692 712.846 L 669.692 692.346 C 669.692 670.646 668.392 657.746 663.892 635.446 C 654.292 588.446 633.792 546.246 595.892 496.046 C 590.592 489.046 586.292 483.046 586.292 482.746 C 586.292 482.546 587.792 480.246 589.692 477.646 C 594.392 470.946 596.892 465.646 598.592 458.746 C 600.492 451.346 601.692 438.346 600.592 438.346 C 600.092 438.346 598.392 442.246 596.892 447.146 C 592.892 459.446 589.992 465.646 584.892 472.746 C 573.292 489.046 553.992 503.146 534.092 509.946 C 526.292 512.546 512.892 515.346 507.792 515.346 C 504.592 515.346 504.492 515.346 500.892 504.846 L 497.292 494.346 L 499.692 489.146 C 504.292 479.146 506.992 471.846 508.692 464.846 C 509.592 461.046 510.892 456.246 511.392 454.346 C 511.992 452.446 512.692 445.446 512.992 438.846 C 513.792 420.546 511.092 408.046 502.592 390.646 C 497.792 381.046 491.392 372.446 485.092 367.346 C 483.092 365.646 479.992 362.546 478.292 360.346 L 475.192 356.446 L 481.192 353.446 C 484.492 351.746 492.892 347.046 499.992 343.046 C 517.492 332.846 523.492 330.046 532.792 327.046 C 547.692 322.346 569.892 321.246 584.292 324.446 C 608.592 329.846 633.192 350.746 646.692 377.346 C 659.292 402.146 661.792 418.546 660.292 465.746 C 659.292 499.146 660.192 516.446 663.492 522.546 L 665.792 526.846 L 666.092 522.946 L 666.392 519.046 L 671.892 519.746 C 687.092 521.546 691.392 526.346 707.992 560.246 C 714.892 574.346 723.092 591.546 726.292 598.546 C 743.592 635.946 759.192 681.946 766.692 717.346 C 769.992 733.046 770.492 738.946 769.292 745.246 C 766.492 760.246 753.692 765.146 715.792 765.846 C 705.392 765.946 694.792 765.946 692.292 765.746 Z  M 636.792 372.546" fill="rgb(200,151,219)"/><path d=" M 547.792 736.346 C 535.492 735.646 518.292 733.746 517.692 733.046 C 517.592 732.946 518.192 728.646 518.892 723.546 C 519.792 717.546 521.192 712.646 522.692 710.046 C 532.292 693.246 540.092 661.746 541.792 632.346 C 543.492 605.246 536.292 566.246 523.392 531.846 C 521.092 525.946 519.292 520.946 519.292 520.746 C 519.292 520.546 520.192 520.346 521.292 520.346 C 525.192 520.346 542.992 514.046 551.792 509.446 C 556.792 506.946 561.092 504.746 561.592 504.546 C 561.992 504.346 562.292 506.246 562.292 508.846 C 562.292 513.246 565.092 520.446 567.292 521.846 C 567.892 522.246 568.292 521.046 568.292 518.946 C 568.292 516.946 568.692 515.346 569.192 515.346 C 569.692 515.346 572.992 516.246 576.492 517.346 C 586.892 520.546 590.492 523.846 595.692 534.546 C 609.592 563.946 621.092 609.246 625.792 653.346 C 627.992 674.046 628.892 710.346 627.392 717.546 C 625.892 724.546 622.892 729.046 618.192 731.546 C 610.292 735.546 575.792 737.946 547.792 736.346 Z " fill="rgb(200,151,219)"/><path d=" M 428.292 514.746 C 398.192 506.046 366.492 479.746 343.292 444.346 C 335.692 432.746 325.492 412.646 319.692 397.846 C 315.292 386.346 308.992 366.546 307.792 360.046 C 307.192 357.146 306.692 356.346 305.492 356.846 C 301.992 358.146 285.992 362.346 275.292 364.746 C 229.492 374.846 188.092 374.646 163.092 364.146 C 160.392 363.046 158.292 361.846 158.292 361.446 C 158.292 361.146 165.292 361.046 173.792 361.146 C 182.292 361.346 189.292 361.146 189.292 360.646 C 189.292 357.846 184.792 344.146 182.592 340.546 C 177.192 331.146 165.492 327.146 149.392 329.146 C 131.992 331.346 131.092 331.046 121.492 321.946 C 114.692 315.446 111.292 309.046 111.292 302.546 C 111.292 296.146 112.692 295.046 123.492 292.346 C 133.992 289.646 139.092 286.346 146.092 277.646 C 152.092 270.146 157.692 255.346 159.792 241.846 C 161.092 233.346 162.192 229.946 167.992 217.546 C 169.292 214.546 170.192 211.946 169.892 211.546 C 169.092 210.846 163.292 217.346 158.692 224.146 C 156.492 227.446 154.692 229.146 153.992 228.646 C 151.192 227.046 136.392 214.146 131.592 209.246 L 126.392 203.846 L 128.692 192.846 C 129.992 186.846 132.992 176.446 135.292 169.846 C 137.592 163.246 139.692 157.046 139.992 156.146 C 140.692 153.846 145.592 153.746 151.992 155.946 C 154.592 156.846 158.192 157.946 159.792 158.446 C 176.192 162.646 190.792 167.546 205.292 173.546 C 206.692 174.146 208.692 174.946 209.792 175.446 C 224.692 181.446 247.792 192.546 259.792 199.346 C 263.692 201.546 267.692 203.846 268.792 204.346 C 269.892 204.946 272.192 206.246 273.792 207.346 C 275.492 208.446 277.492 209.646 278.292 210.046 C 279.092 210.446 281.892 212.246 284.392 214.046 C 286.992 215.846 289.392 217.346 289.792 217.346 C 290.292 217.346 291.392 217.946 292.192 218.746 C 293.692 220.046 293.792 218.246 293.892 199.046 C 293.892 183.446 294.392 175.846 295.492 170.346 C 297.792 159.646 299.192 154.546 300.192 152.546 C 300.692 151.646 302.192 148.646 303.392 145.846 C 307.592 136.946 316.792 126.046 323.192 122.546 C 324.492 121.746 327.092 120.346 328.892 119.346 C 331.992 117.546 339.292 115.646 339.292 116.546 C 339.292 116.746 338.592 119.046 337.692 121.546 C 336.892 124.146 336.292 127.546 336.492 129.346 C 336.792 132.046 337.992 130.246 346.792 114.646 C 359.892 91.446 366.292 82.646 378.792 70.446 C 390.692 58.846 393.092 57.746 397.392 61.946 C 408.592 72.546 417.692 92.546 420.792 113.346 C 422.792 126.346 422.792 155.346 420.692 167.446 C 417.192 188.146 406.592 211.646 394.692 224.846 C 386.992 233.446 381.592 241.046 381.492 243.646 C 381.392 245.246 380.492 249.746 379.392 253.746 L 377.592 261.046 L 384.392 273.146 C 390.292 283.746 391.292 286.446 392.692 294.446 C 394.792 306.646 394.692 313.446 392.392 322.546 C 389.692 333.046 386.392 338.946 379.592 345.446 C 369.992 354.646 357.192 361.346 344.292 363.846 C 342.392 364.246 340.492 364.746 340.192 364.946 C 339.392 365.446 343.992 383.946 351.292 409.346 C 353.892 418.346 356.792 425.346 358.092 425.346 C 359.092 425.346 369.592 419.946 373.392 417.546 C 374.792 416.646 377.992 414.546 380.392 412.946 C 382.792 411.446 389.392 405.346 395.092 399.646 C 403.592 390.946 405.192 389.746 403.992 392.646 C 398.192 406.346 382.092 423.046 368.092 429.746 L 359.192 433.946 L 361.892 437.946 C 369.992 449.846 387.392 467.946 401.692 479.246 C 409.492 485.346 422.292 494.346 425.292 495.646 C 426.092 496.046 428.592 497.546 430.792 498.846 C 432.992 500.246 436.292 502.146 438.192 502.946 C 441.492 504.446 441.492 504.646 440.892 509.046 C 440.592 511.546 440.292 514.446 440.292 515.446 C 440.292 517.846 438.692 517.846 428.292 514.746 Z  M 303.692 315.746 C 303.992 314.846 304.292 312.446 304.292 310.246 C 304.292 307.146 303.592 305.546 300.892 302.546 C 297.492 298.946 297.392 298.946 295.392 300.746 L 293.392 302.546 L 296.192 306.246 C 297.792 308.246 299.592 311.546 300.292 313.646 C 301.492 317.546 302.692 318.346 303.692 315.746 Z  M 271.292 312.246 C 263.592 307.046 237.392 296.346 232.192 296.346 C 229.992 296.346 229.792 294.646 231.592 292.146 C 232.692 290.746 233.292 290.646 235.892 291.746 C 240.292 293.746 249.392 296.646 249.592 296.246 C 249.692 296.046 251.792 291.846 254.092 287.046 C 259.092 276.846 262.292 265.346 262.292 257.646 C 262.292 254.746 262.392 252.346 262.592 252.346 C 263.992 252.046 313.792 249.346 316.592 249.346 C 320.392 249.346 320.492 249.346 320.092 253.146 L 319.792 256.846 L 327.992 256.646 C 337.192 256.546 342.592 254.446 349.092 248.646 C 353.492 244.846 352.092 244.446 344.092 247.146 C 335.892 250.046 330.992 251.046 326.992 250.546 C 321.992 249.946 322.292 248.746 327.592 248.046 C 329.992 247.746 334.192 246.246 336.992 244.846 C 342.292 242.046 352.092 232.846 350.992 231.746 C 350.592 231.346 347.092 232.646 343.092 234.646 C 336.492 237.846 327.092 241.146 321.792 242.046 C 319.792 242.446 313.692 242.746 294.792 243.846 C 289.292 244.046 280.292 244.546 274.792 244.846 C 269.292 245.246 261.192 245.646 256.792 245.846 C 252.392 246.046 244.092 246.546 238.292 246.846 C 223.792 247.646 213.692 248.146 200.892 248.746 L 190.092 249.146 L 192.992 246.046 C 194.592 244.246 198.092 240.346 200.692 237.346 C 203.392 234.346 206.692 230.646 207.992 229.146 C 211.292 225.446 208.992 225.446 203.192 229.146 C 197.792 232.646 177.292 253.146 177.292 255.146 C 177.292 256.446 179.092 256.546 189.292 256.046 L 201.292 255.346 L 199.292 260.446 C 196.892 266.446 194.292 280.646 194.292 287.546 C 194.292 290.646 193.892 292.246 193.292 291.846 C 192.692 291.446 188.592 291.546 184.092 291.946 C 173.492 292.846 176.092 293.946 192.092 295.346 C 229.292 298.646 230.992 298.946 255.092 307.746 C 269.592 313.146 274.492 314.546 271.292 312.246 Z  M 145.292 308.346 C 148.692 304.946 147.592 303.046 143.892 305.846 C 142.792 306.646 140.292 307.346 138.392 307.346 C 134.992 307.446 134.892 307.546 136.692 308.846 C 139.392 310.946 142.892 310.746 145.292 308.346 Z  M 200.392 307.346 C 199.092 306.246 197.292 305.346 196.392 305.346 C 195.492 305.446 196.292 306.246 198.292 307.346 C 202.792 309.746 203.392 309.746 200.392 307.346 Z  M 321.992 301.246 C 321.392 296.346 318.292 292.846 313.392 291.246 C 308.092 289.446 305.492 289.346 304.292 290.846 C 302.892 292.546 303.792 294.346 305.892 294.346 C 308.692 294.346 315.192 298.346 317.992 301.846 C 321.692 306.446 322.692 306.246 321.992 301.246 Z  M 328.292 285.346 C 328.292 281.446 325.392 278.646 319.592 276.846 C 314.192 275.146 313.892 275.146 312.592 276.846 C 311.892 277.946 311.292 278.946 311.292 279.246 C 311.292 279.546 313.992 280.646 317.192 281.646 C 320.492 282.746 323.892 284.346 324.892 285.446 C 327.092 287.946 328.292 287.846 328.292 285.346 Z  M 340.292 269.146 L 344.792 267.046 L 337.292 265.746 C 333.092 265.146 327.392 263.846 324.392 262.946 C 318.392 261.146 317.292 261.446 317.292 264.746 C 317.292 266.946 319.892 268.646 326.292 270.746 C 329.792 271.846 336.092 271.146 340.292 269.146 Z  M 390.492 171.846 C 394.392 162.546 397.192 150.746 397.892 140.246 C 398.592 131.246 397.692 118.346 396.392 118.346 C 395.892 118.346 395.092 123.546 394.392 129.946 C 392.692 146.846 389.692 161.046 384.692 176.246 C 382.292 183.646 380.292 189.946 380.292 190.246 C 380.292 191.746 387.892 178.046 390.492 171.846 Z " fill="rgb(200,151,219)"/><path d=" M 207.992 287.546 C 205.792 285.146 205.892 282.046 208.092 280.046 C 210.592 277.746 212.892 277.946 214.692 280.546 C 216.792 283.546 216.692 284.946 214.292 287.346 C 211.792 289.846 210.092 289.846 207.992 287.546 Z " fill="rgb(200,151,219)"/><path d=" M 232.692 274.346 C 229.292 273.046 224.592 266.846 222.392 260.846 C 221.192 257.646 220.392 254.946 220.592 254.746 C 220.792 254.546 227.592 254.046 235.692 253.646 C 246.192 253.046 250.692 253.146 250.992 253.946 C 251.192 254.546 250.892 257.246 250.292 259.846 C 247.792 271.046 240.192 277.346 232.692 274.346 Z " fill="rgb(200,151,219)"/><path d=" M 54.292 475.346 C 92.792 451.346 113.192 447.092 116.292 443.292 C 118.432 443.295 164.205 544.789 209.542 541.096 Q 254.879 537.402 318.042 412.096 L 324.892 425.446 C 327.392 430.646 332.492 439.446 335.992 445.146 C 339.592 450.846 342.292 455.646 341.992 455.946 C 341.192 456.746 275.801 605.717 215.902 606.083 C 156.003 606.448 49.792 492.346 54.292 475.346 Z " fill="rgb(200,151,219)"/><g><linearGradient id="_lgradient_0" x1="0.22395729890764646" y1="0.15441525420916258" x2="0.7748987669347221" y2="0.881591737626229" gradientTransform="matrix(134.568,0,0,137.617,22.243,356.729)" gradientUnits="userSpaceOnUse"><stop offset="0%" stop-opacity="1" style="stop-color:rgb(255,195,127)"/><stop offset="1.11%" stop-opacity="1" style="stop-color:rgb(255,195,125)"/><stop offset="28.439999999999998%" stop-opacity="1" style="stop-color:rgb(255,202,74)"/><stop offset="49.11%" stop-opacity="1" style="stop-color:rgb(255,206,43)"/><stop offset="60.61%" stop-opacity="1" style="stop-color:rgb(255,208,31)"/><stop offset="84.24000000000001%" stop-opacity="1" style="stop-color:rgb(255,128,0)"/><stop offset="86.57000000000001%" stop-opacity="1" style="stop-color:rgb(255,138,17)"/><stop offset="91.16%" stop-opacity="1" style="stop-color:rgb(255,165,60)"/><stop offset="97.50999999999999%" stop-opacity="1" style="stop-color:rgb(255,209,129)"/><stop offset="100%" stop-opacity="1" style="stop-color:rgb(255,227,158)"/></linearGradient><path d=" M 156.811 427.062 C 156.811 464.223 126.688 494.346 89.527 494.346 C 52.366 494.346 22.243 464.223 22.243 427.062 C 22.243 389.901 52.213 377.142 83.087 360.541 C 115.819 342.946 156.811 389.901 156.811 427.062 Z " fill="url(#_lgradient_0)" vector-effect="non-scaling-stroke" stroke-width="1.424" stroke="rgb(146,27,3)" stroke-linejoin="miter" stroke-linecap="butt" stroke-miterlimit="10"/><linearGradient id="_lgradient_1" x1="0.22107150244776952" y1="-0.01528218619151428" x2="0.7160882637840228" y2="0.9447608278276454" gradientTransform="matrix(121.13,0,0,124.346,27.009,361.812)" gradientUnits="userSpaceOnUse"><stop offset="0%" stop-opacity="1" style="stop-color:rgb(255,145,0)"/><stop offset="13.120000000000001%" stop-opacity="0.8688" style="stop-color:rgb(255,147,4)"/><stop offset="25.75%" stop-opacity="0.7425" style="stop-color:rgb(255,152,15)"/><stop offset="38.190000000000005%" stop-opacity="0.6181" style="stop-color:rgb(255,160,35)"/><stop offset="50.51%" stop-opacity="0.4949" style="stop-color:rgb(255,172,62)"/><stop offset="62.739999999999995%" stop-opacity="0.3726" style="stop-color:rgb(255,187,97)"/><stop offset="74.91%" stop-opacity="0.2509" style="stop-color:rgb(255,206,140)"/><stop offset="87.03999999999999%" stop-opacity="0.1296" style="stop-color:rgb(255,228,191)"/><stop offset="98.85000000000001%" stop-opacity="0.0115" style="stop-color:rgb(255,252,249)"/><stop offset="100%" stop-opacity="0" style="stop-color:rgb(255,255,255)"/></linearGradient><path d=" M 148.139 425.592 C 148.139 459.042 121.028 486.158 87.575 486.158 C 54.125 486.158 27.009 459.042 27.009 425.592 C 27.009 392.142 63.482 377.916 84.944 365.521 C 113.909 348.795 148.139 392.142 148.139 425.592 Z " fill="url(#_lgradient_1)"/><linearGradient id="_lgradient_2" x1="-0.165382039212861" y1="0.5083508196317216" x2="0.9912237370796332" y2="0.49641789976861217" gradientTransform="matrix(62.921,0,0,51.942,70.344,370.177)" gradientUnits="userSpaceOnUse"><stop offset="0%" stop-opacity="1" style="stop-color:rgb(255,182,0)"/><stop offset="29.080000000000002%" stop-opacity="0.7092" style="stop-color:rgb(255,208,90)"/><stop offset="54.50000000000001%" stop-opacity="0.455" style="stop-color:rgb(255,228,160)"/><stop offset="75.48%" stop-opacity="0.2452" style="stop-color:rgb(255,243,212)"/><stop offset="91.25%" stop-opacity="0.0875" style="stop-color:rgb(255,252,243)"/><stop offset="100%" stop-opacity="0" style="stop-color:rgb(255,255,255)"/></linearGradient><path d=" M 112.506 374.853 C 128.843 383.066 137.292 399.252 131.379 411.015 C 125.471 422.772 107.436 425.653 91.1 417.44 C 74.769 409.233 66.319 393.044 72.23 381.284 C 78.14 369.522 96.172 366.646 112.506 374.853 Z " fill="url(#_lgradient_2)"/><ellipse vector-effect="non-scaling-stroke" cx="66.11055464239934" cy="390.59403206043754" rx="11.280816285998" ry="9.57700099304867" fill="rgb(142,83,19)"/><g><path d=" M 73.199 327.578 C 73.199 327.578 33.507 331.064 40.982 367.384 C 40.982 367.384 61.456 369.639 67.452 361.432 C 73.449 353.227 73.199 327.578 73.199 327.578 Z " fill="rgb(0,144,58)" vector-effect="non-scaling-stroke" stroke-width="0.95" stroke="rgb(0,105,52)" stroke-linejoin="miter" stroke-linecap="butt" stroke-miterlimit="10"/><path d=" M 71.481 330.395 C 71.481 330.395 46.823 336.261 43.006 365.485 C 43.006 365.488 45.823 345.861 71.481 330.395 Z " fill="rgb(0,105,52)"/><path d=" M 64.847 351.554 C 64.847 351.554 47.458 346.253 45.23 355.869 C 45.23 355.869 48.19 340.401 64.847 351.554 Z " fill="rgb(0,105,52)"/><path d=" M 65.011 345.387 C 65.011 345.387 58.752 336.041 52.53 345.357 C 52.53 345.357 57.722 333.647 65.011 345.387 Z " fill="rgb(0,105,52)"/><path d=" M 43.451 347.161 C 43.451 347.161 49.493 343.213 50.069 349.861 C 50.069 349.864 45.656 344.318 43.451 347.161 Z " fill="rgb(0,105,52)"/><path d=" M 53.908 342.431 C 53.908 342.431 56.52 336.743 50.392 339.19 C 44.267 341.64 54.679 337.336 53.908 342.431 Z " fill="rgb(0,105,52)"/><path d=" M 61.673 336.392 C 61.673 336.392 64.284 330.704 58.157 333.152 C 52.029 335.604 62.444 331.297 61.673 336.392 Z " fill="rgb(0,105,52)"/><path d=" M 72.146 339.187 C 72.146 339.187 65.891 329.839 59.666 339.154 C 59.663 339.154 64.855 327.447 72.146 339.187 Z " fill="rgb(0,105,52)"/></g><path d=" M 33.295 362.378 L 41.099 358.695 C 41.099 358.695 67.75 379.065 74.037 389.249 C 74.037 389.249 70.136 399.002 59.732 395.316 C 59.732 395.316 48.465 373.648 33.295 362.378 Z " fill="rgb(147,97,52)" vector-effect="non-scaling-stroke" stroke-width="0.95" stroke="rgb(64,33,15)" stroke-linejoin="miter" stroke-linecap="butt" stroke-miterlimit="10"/><linearGradient id="_lgradient_3" x1="0.32027981208040446" y1="-0.07594179877297424" x2="0.42724690527222153" y2="0.9674076213598393" gradientTransform="matrix(10.816,0,0,32.925,35.582,399.896)" gradientUnits="userSpaceOnUse"><stop offset="0%" stop-opacity="1" style="stop-color:rgb(255,182,0)"/><stop offset="29.080000000000002%" stop-opacity="0.7092" style="stop-color:rgb(255,208,90)"/><stop offset="54.50000000000001%" stop-opacity="0.455" style="stop-color:rgb(255,228,160)"/><stop offset="75.48%" stop-opacity="0.2452" style="stop-color:rgb(255,243,212)"/><stop offset="91.25%" stop-opacity="0.0875" style="stop-color:rgb(255,252,243)"/><stop offset="100%" stop-opacity="0" style="stop-color:rgb(255,255,255)"/></linearGradient><path d=" M 46.052 416.942 C 45.005 426.029 41.89 433.131 39.092 432.811 C 36.297 432.488 34.88 424.86 35.926 415.775 C 36.976 406.688 40.091 399.586 42.886 399.907 C 45.684 400.229 47.101 407.858 46.052 416.942 Z " fill="url(#_lgradient_3)"/><g><path d=" M 109.785 423.915 C 109.874 433.695 110.206 440.471 110.785 444.263 C 111.996 452.134 114.621 455.767 118.672 455.143 C 121.517 454.709 124.245 452.579 126.848 448.768 L 128.251 449.436 C 126.873 454.709 125.47 458.264 124.048 460.127 C 122.619 461.983 120.91 463.069 118.906 463.375 C 115.835 463.843 113.363 462.334 111.481 458.837 C 109.604 455.344 108.296 451.22 107.566 446.46 C 106.851 441.788 106.517 435.438 106.567 427.414 C 102.558 433.041 97.758 441.563 92.176 452.986 C 88.707 460.082 86.31 464.5 84.982 466.251 C 83.654 468.002 81.926 469.041 79.79 469.369 C 76.541 469.868 74.673 468.509 74.178 465.316 C 73.919 463.618 74.325 461.953 75.397 460.305 C 76.466 458.662 79.153 455.831 83.451 451.791 C 83.448 442.551 83.131 435.864 82.493 431.724 C 81.291 423.887 78.646 420.287 74.551 420.914 C 71.747 421.337 69.041 423.464 66.441 427.278 L 64.974 426.613 C 67.24 417.932 70.355 413.285 74.314 412.681 C 77.34 412.216 79.801 413.72 81.7 417.186 C 83.599 420.655 84.916 424.789 85.651 429.597 C 86.374 434.31 86.728 440.638 86.711 448.562 C 91.191 442.415 95.868 434.157 100.748 423.798 C 103.983 416.972 106.383 412.492 107.95 410.362 C 109.512 408.232 111.364 407.002 113.499 406.676 C 114.966 406.451 116.208 406.74 117.218 407.542 C 118.229 408.347 118.839 409.413 119.039 410.746 C 119.315 412.525 118.894 414.249 117.784 415.925 C 116.676 417.595 114.008 420.257 109.785 423.915 L 109.785 423.915 Z " fill="rgb(107,45,3)"/></g></g><path d=" M 162.592 354.646 L 150.392 354.246 L 144.692 346.246 C 140.792 340.646 139.392 337.846 140.092 337.146 C 141.692 335.546 163.292 334.846 167.592 336.246 C 171.892 337.746 176.292 340.946 176.292 342.846 C 176.292 343.546 175.092 344.646 173.592 345.146 C 170.792 346.146 170.792 346.146 174.492 346.246 C 177.592 346.346 178.492 346.846 179.792 349.346 C 182.192 353.946 181.792 355.346 178.092 355.146 C 176.292 355.046 169.292 354.746 162.592 354.646 Z " fill="rgb(200,151,219)"/><path d=" M 138.392 265.946 C 136.892 264.246 137.692 260.746 139.792 260.046 C 141.692 259.246 143.492 261.746 143.092 264.546 C 142.692 267.246 140.092 268.046 138.392 265.946 Z " fill="rgb(200,151,219)"/><path d=" M 143.292 247.346 C 140.092 243.946 137.692 237.546 136.592 229.846 C 135.892 224.146 134.792 223.846 146.192 232.346 C 151.792 236.546 152.192 237.146 152.292 240.846 C 152.292 245.646 150.392 249.746 147.992 250.146 C 146.992 250.346 144.992 249.146 143.292 247.346 Z " fill="rgb(200,151,219)"/><path d=" M 162.192 116.346 C 158.692 109.446 155.692 103.546 155.492 103.146 C 155.292 102.646 156.292 102.346 157.692 102.346 C 164.192 102.346 170.692 97.246 174.192 89.346 C 176.492 84.046 178.492 72.946 177.692 69.646 C 177.292 68.346 177.492 67.346 177.892 67.446 C 178.792 67.446 199.492 93.346 199.992 95.046 C 200.192 95.546 196.792 98.946 192.392 102.646 C 185.092 108.746 175.992 118.446 170.692 125.846 L 168.492 128.746 L 162.192 116.346 Z " fill="rgb(200,151,219)"/><path d=" M 152.492 97.046 C 151.292 95.646 139.292 74.346 139.292 73.746 C 139.292 73.546 139.892 73.346 140.592 73.346 C 143.392 73.346 150.392 67.146 153.292 62.146 C 154.892 59.246 156.792 54.246 157.492 51.146 C 158.192 47.946 159.092 45.346 159.492 45.346 C 159.892 45.346 160.292 45.646 160.292 46.146 C 160.392 46.546 163.292 50.046 166.792 53.846 C 174.092 61.746 174.992 64.646 173.992 76.346 C 173.292 84.746 171.192 89.746 166.492 94.646 C 163.392 97.846 162.292 98.346 158.192 98.346 C 155.592 98.346 153.092 97.746 152.492 97.046 Z " fill="rgb(200,151,219)"/><path d=" M 134.992 66.146 C 129.092 55.646 125.292 48.446 125.292 47.646 C 125.292 47.146 126.592 46.046 128.192 45.046 C 131.692 43.046 136.892 35.446 138.492 30.146 C 139.092 28.046 139.892 26.346 140.192 26.346 C 140.592 26.346 144.192 29.646 148.192 33.746 L 155.592 41.146 L 154.892 46.846 C 153.992 54.946 150.792 61.646 145.692 66.346 C 140.092 71.546 137.992 71.446 134.992 66.146 Z " fill="rgb(200,151,219)"/><path d=" M 118.892 35.146 C 113.492 23.646 110.292 14.246 110.292 10.346 C 110.292 7.746 110.692 7.346 113.092 7.346 C 116.392 7.346 123.392 11.346 130.692 17.346 C 135.092 20.946 136.192 22.446 136.192 24.846 C 136.292 30.646 130.292 40.646 124.992 43.446 C 123.392 44.346 122.692 43.246 118.892 35.146 Z " fill="rgb(200,151,219)"/></g><g><path d=" M 156.792 353.2 L 149.792 352.9 L 144.592 345.5 C 141.692 341.5 139.292 337.9 139.292 337.7 C 139.292 336.7 158.692 334.9 162.592 335.5 C 167.392 336.3 173.292 339.1 175.292 341.5 C 176.692 343.2 176.792 343.2 173.292 344.7 L 170.792 345.9 L 173.892 345.9 C 177.392 346 178.792 347.3 179.792 351.3 L 180.492 354 L 172.192 353.8 C 167.592 353.7 160.692 353.4 156.792 353.2 Z " fill="rgb(252,251,253)"/><path d=" M 268.892 309.8 C 266.292 308.1 260.592 305.2 256.492 303.4 C 252.292 301.6 248.692 299.6 248.492 299 C 248.292 298.5 249.092 296.7 250.192 295.1 C 255.992 287 262.292 267.5 262.292 257.8 L 262.292 252.2 L 270.092 251.6 C 285.592 250.4 319.492 248.9 319.992 249.4 C 320.592 250 319.092 258.3 316.892 266 C 314.792 273.2 309.292 284.5 305.392 289.4 C 303.692 291.5 302.292 293.6 302.292 294 C 302.292 294.4 299.092 297.5 295.192 300.8 C 288.192 306.8 277.792 313.1 275.192 312.9 C 274.392 312.9 271.592 311.5 268.892 309.8 Z " fill="rgb(252,251,253)"/><path d=" M 207.892 286.8 C 206.992 285.6 206.292 283.8 206.292 282.9 C 206.292 280.9 209.392 278 211.492 278 C 215.392 278 217.092 285.2 213.692 287.7 C 211.192 289.6 209.592 289.3 207.892 286.8 Z " fill="rgb(252,251,253)"/><path d=" M 232.692 274 C 229.492 272.7 224.692 266.4 222.392 260.2 C 221.192 257.2 220.392 254.6 220.592 254.4 C 220.692 254.2 227.492 253.8 235.592 253.4 L 250.292 252.7 L 250.292 256.7 C 250.292 262.1 245.992 270.4 241.892 273 C 238.392 275.1 236.092 275.4 232.692 274 Z " fill="rgb(252,251,253)"/><path d=" M 138.392 265.6 C 136.492 263.3 137.992 259.8 140.592 260.2 C 142.292 260.4 142.792 261.2 142.792 263.5 C 142.792 266.9 140.392 268 138.392 265.6 Z " fill="rgb(252,251,253)"/><path d=" M 145.092 248.4 C 141.992 246.8 138.792 240.6 137.292 233.3 C 135.392 224.5 135.892 224.3 144.492 230.7 C 152.792 237 153.692 238.8 151.192 245.8 C 149.892 249.6 148.492 250.2 145.092 248.4 Z " fill="rgb(252,251,253)"/></g><g style="isolation:isolate"><g><g><path d=" M 576.558 396.181 C 581.184 413.446 598.957 423.707 616.222 419.081 C 633.488 414.455 643.749 396.682 639.123 379.416 C 634.496 362.151 616.723 351.89 599.458 356.516 C 582.193 361.142 571.932 378.915 576.558 396.181 Z " fill="none" vector-effect="non-scaling-stroke" stroke-width="4.5" stroke="rgb(153,0,255)" stroke-linejoin="miter" stroke-linecap="butt" stroke-miterlimit="4"/><path d=" M 576.558 396.181 C 583.456 418.775 613.363 408.231 607.84 387.799 C 602.206 366.953 632.387 356.734 639.123 379.416" fill="none" vector-effect="non-scaling-stroke" stroke-width="4.5" stroke="rgb(153,0,255)" stroke-linejoin="miter" stroke-linecap="butt" stroke-miterlimit="4"/><path d=" M 580.336 395.227 L 591.61 404.518 L 603.437 396.893 L 599.47 382.802 L 585.116 381.643 L 580.336 395.227 Z " fill="none" vector-effect="non-scaling-stroke" stroke-width="4.5" stroke="rgb(204,0,204)" stroke-linejoin="miter" stroke-linecap="butt" stroke-miterlimit="4"/><g><path d=" M 613.808 382.64 C 610.877 387.192 614.987 395.56 622.561 395.978 C 626.007 396.151 629.909 394.841 632.232 391.864 C 634.146 389.455 635.439 386.336 633.677 381.191 C 632.685 378.3 626.864 374.191 621.954 378.981 C 620.145 378.595 616.73 378.025 613.808 382.64 L 613.808 382.64 Z " fill="rgb(255,230,191)" vector-effect="non-scaling-stroke" stroke-width="2.9" stroke="rgb(236,198,0)" stroke-linejoin="round" stroke-linecap="butt" stroke-miterlimit="4"/><path d=" M 621.608 376.09 C 624.008 375.493 626.518 373.933 625.564 369.885 C 624.431 370.071 621.386 371.523 621.964 374.588 C 622.392 376.835 621.262 375.965 620.485 374.435 C 620.006 374.736 620.351 374.501 619.731 374.95 C 622.182 377.26 621.752 378.914 622.073 378.801 C 622.433 378.675 621.976 377.426 621.608 376.09 L 621.608 376.09 Z " fill="rgb(255,230,191)" vector-effect="non-scaling-stroke" stroke-width="2.9" stroke="rgb(236,198,0)" stroke-linejoin="miter" stroke-linecap="butt" stroke-miterlimit="4"/></g><g><path d=" M 614.964 387.112 C 615.165 386.938 615.222 386.688 615.35 386.72 C 615.919 386.86 615.67 390.638 615.685 390.315 C 615.732 389.438 616.967 386.174 616.865 386.317 C 616.797 386.399 616.247 388.341 616.791 389.731 C 616.993 390.221 617.252 389.796 617.418 389.114 M 619.676 385.663 C 619.597 386.683 619.278 389.445 618.562 389.568 C 617.725 389.713 617.521 386.403 618.511 386.077 C 619.184 385.857 619.541 390.877 620.068 388.645 M 619.571 383.785 C 620.585 381.383 621.418 390.519 622.569 388.141 M 620.635 388.99 L 620.818 385.316 M 623.142 388.277 L 623.325 384.603 M 622.079 383.072 C 623.092 380.67 623.926 389.806 625.076 387.428 M 625.128 383.995 C 625.463 386.022 625.668 389.256 626.349 386.362 M 628.509 383.455 C 628.17 383.349 627.367 383.158 627.016 383.985 C 626.685 384.785 626.946 387.071 627.977 387.021 C 628.622 387.002 628.822 384.004 627.52 384.142 M 630.12 383.031 C 630.325 385.113 630.242 387.658 631.07 385.387 M 631.729 382.289 C 632.064 384.315 632.269 387.55 632.95 384.655" fill="none" vector-effect="non-scaling-stroke" stroke-width="0.5" stroke="rgb(0,0,0)" stroke-linejoin="round" stroke-linecap="round" stroke-miterlimit="4"/><path d=" M 631.049 382.089 C 631.157 383.152 630.753 383.197 630.163 383.312 C 629.476 383.446 629.531 383.281 629.29 384.169 L 629.141 384.2 C 629.016 382.553 629.687 382.889 630.323 382.747 C 630.623 382.68 630.792 382.553 630.889 382.132 L 631.049 382.089" fill="rgb(0,0,0)"/></g></g></g></g></g></svg>